<svg width="306" height="158" viewBox="0 0 306 158" fill="none" xmlns="http://www.w3.org/2000/svg">
<path d="M214.82 90.3528V98.6845C213.594 98.7567 212.35 98.7927 211.087 98.7927C207.661 98.7927 205.028 97.9812 203.188 96.3581C201.349 94.699 200.195 92.2103 199.726 88.892C199.293 86.9083 198.842 85.7541 198.373 85.4295C197.94 85.0688 196.534 84.8524 194.153 84.7802H185.767V98.3599H175.163V60.4883H199.185C204.126 60.4883 207.913 61.5162 210.546 63.5721C213.179 65.628 214.496 68.6938 214.496 72.7695C214.496 77.6387 212.169 80.8668 207.517 82.4538V82.7243C208.887 83.6621 209.699 84.9425 209.951 86.5656C210.312 89.0904 211.935 90.3528 214.82 90.3528ZM185.767 68.82V76.5567H199.185C200.664 76.5567 201.818 76.2321 202.647 75.5828C203.477 74.8975 203.892 73.9417 203.892 72.7154C203.892 71.4891 203.477 70.5333 202.647 69.848C201.818 69.1627 200.664 68.82 199.185 68.82H185.767Z" fill="black"/>
<path d="M169.226 87.9723C169.226 91.507 168.108 94.1219 165.872 95.8171C163.672 97.5123 160.281 98.3599 155.701 98.3599H131.733V60.4883H155.701C164.574 60.4883 169.01 63.7885 169.01 70.389C169.01 74.609 167.008 77.4584 163.005 78.9372V79.1536C167.152 80.7045 169.226 83.6441 169.226 87.9723ZM154.619 68.9282H142.337V75.4205H154.132C155.43 75.4205 156.458 75.132 157.216 74.5549C157.973 73.9778 158.352 73.2023 158.352 72.2285C158.352 70.0283 157.107 68.9282 154.619 68.9282ZM158.622 86.6738C158.622 85.4475 158.207 84.4917 157.378 83.8064C156.584 83.1211 155.502 82.7784 154.132 82.7784H142.283V89.9741H154.619C157.288 89.9741 158.622 88.874 158.622 86.6738Z" fill="black"/>
<path d="M112.316 84.7789C109.719 85.8249 107.754 86.7266 106.419 87.484C105.085 88.2414 104.039 89.089 103.281 90.0268H124.652V98.3586H91V94.9501C91.1803 91.9204 92.0279 89.3956 93.5428 87.3758C95.1298 85.2838 96.9332 83.6608 98.953 82.5066C101.081 81.2803 103.696 79.9818 106.798 78.6112C108.782 77.7456 110.333 77.0242 111.451 76.4471C114.012 75.1487 115.292 73.6518 115.292 71.9566C115.292 71.0549 114.715 70.3516 113.561 69.8466C112.443 69.3056 110.91 69.0351 108.962 69.0351C106.834 69.0351 105.175 69.4318 103.985 70.2253C102.794 70.9828 102.199 72.0648 102.199 73.4715H91.541C91.541 69.2154 93.092 65.9152 96.1938 63.5708C99.3318 61.1903 103.696 60 109.287 60C114.444 60 118.484 61.0279 121.406 63.0838C124.363 65.1037 125.842 67.8989 125.842 71.4697C125.842 73.8502 125.211 75.8881 123.948 77.5833C122.794 79.1703 121.261 80.5048 119.35 81.5868C117.546 82.5607 115.202 83.6247 112.316 84.7789Z" fill="black"/>
</svg>
