<svg width="306" height="158" viewBox="0 0 306 158" fill="none" xmlns="http://www.w3.org/2000/svg">
<path fill-rule="evenodd" clip-rule="evenodd" d="M157.804 102.698C158.337 102.45 159.853 102.464 160.425 102.698C161.077 102.987 161.782 103.854 162.075 104.72C162.434 105.78 162.434 108.725 162.075 109.771C161.583 111.257 160.585 112 159.135 112C158.11 112 157.458 111.711 156.833 110.968C156.261 110.307 156.062 109.771 155.889 108.408C155.729 107.129 155.875 105.326 156.221 104.473C156.474 103.854 157.312 102.918 157.804 102.698ZM159.64 104.432C159.201 104.074 158.909 104.087 158.563 104.473C158.124 104.954 158.004 105.574 158.017 107.321C158.017 109.083 158.177 109.716 158.682 110.115C159.002 110.349 159.082 110.362 159.414 110.197C160 109.908 160.172 109.358 160.239 107.679C160.319 105.849 160.119 104.831 159.64 104.432Z" fill="black"/>
<path d="M204.154 102.711C204.646 102.436 205.711 102.436 205.817 102.725C206.003 103.221 205.897 103.867 205.564 104.239C205.351 104.473 205.232 104.776 205.232 105.051C205.232 105.642 204.992 106.358 204.66 106.73L204.393 107.032L204.793 107.376C205.205 107.734 205.498 108.56 205.498 109.358C205.498 109.578 205.617 109.867 205.764 110.005C206.11 110.335 206.15 111.78 205.817 111.917C205.378 112.083 204.726 111.986 204.287 111.684C203.782 111.34 203.542 110.583 203.515 109.317C203.502 108.463 203.249 108.064 202.677 107.968C201.826 107.844 201.773 107.941 201.773 110.005V111.862H200.855C200.136 111.862 199.923 111.807 199.857 111.642C199.751 111.367 199.751 103.138 199.857 102.863C199.923 102.698 200.136 102.643 200.855 102.643H201.759L201.839 106.289L202.278 106.33C202.97 106.399 203.183 106.097 203.369 104.803C203.569 103.372 203.715 102.959 204.154 102.711Z" fill="black"/>
<path d="M89.2911 102.78C89.3445 102.684 90.1959 102.643 91.9252 102.67L94.4795 102.711V111.794L93.5615 111.835C92.9097 111.862 92.6037 111.821 92.5372 111.697C92.4707 111.601 92.4174 109.922 92.4174 107.968V104.431H91.7522C91.3933 104.431 91.0875 104.445 91.0871 104.459C91.0738 104.486 90.994 105.67 90.8875 107.115C90.7944 108.546 90.6347 109.963 90.5549 110.252C90.2356 111.367 89.2378 112.082 88.1602 111.972L87.6947 111.931L87.6149 110.266L88.0538 110.142C88.8654 109.895 88.9984 109.344 89.1048 105.918C89.158 104.28 89.2379 102.863 89.2911 102.78Z" fill="black"/>
<path d="M106.453 102.808C106.493 102.67 107.158 102.643 109.406 102.67L112.306 102.711L112.346 107.294L112.373 111.876L110.444 111.794L110.404 108.106L110.377 104.418L108.448 104.5L108.315 111.794H106.453L106.413 107.39C106.399 104.968 106.413 102.904 106.453 102.808Z" fill="black"/>
<path d="M119.956 102.876C119.956 102.656 120.062 102.629 120.927 102.67L121.885 102.711V111.794L119.956 111.876V109.22C119.956 107.597 119.903 106.633 119.836 106.702C119.716 106.84 119.397 107.445 118.226 109.771C117.92 110.404 117.614 111.106 117.574 111.353L117.481 111.794H115.632L115.592 107.39C115.579 104.968 115.592 102.904 115.632 102.808C115.672 102.684 115.951 102.643 116.59 102.67L117.495 102.711L117.535 105.092C117.561 106.743 117.614 107.459 117.707 107.431C117.907 107.363 119.956 103.207 119.956 102.876Z" fill="black"/>
<path d="M153.082 111.876L151.153 111.794L151.073 108.147H148.971L148.891 111.794L146.962 111.876V102.629L148.891 102.711L149.024 106.289H151.02L151.153 102.711L153.082 102.629V111.876Z" fill="black"/>
<path d="M226.85 102.711V111.794L224.921 111.876V108.147H222.806L222.726 111.794H220.73L220.69 107.39C220.677 104.968 220.69 102.905 220.73 102.808C220.77 102.684 221.063 102.643 221.755 102.67L222.726 102.711L222.859 106.289H224.854L224.934 102.629L226.85 102.711Z" fill="black"/>
<path fill-rule="evenodd" clip-rule="evenodd" d="M82.6925 102.643C83.2646 102.643 83.6504 102.711 83.7302 102.808C83.81 102.904 84.1426 104.005 84.4885 105.257C84.8211 106.509 85.1936 107.831 85.3 108.216C85.9519 110.459 86.2579 111.67 86.2047 111.752C86.178 111.821 85.7257 111.862 85.2202 111.862C84.3289 111.862 84.289 111.849 84.1559 111.477C84.0761 111.271 83.9829 110.899 83.943 110.651C83.9031 110.404 83.81 110.17 83.7435 110.129C83.5571 110.005 81.4952 110.032 81.3754 110.156C81.3089 110.225 81.1892 110.624 81.0828 111.037L80.9099 111.794L80.0185 111.835C79.1937 111.876 79.1139 111.849 79.1139 111.601C79.1139 111.45 79.1671 111.188 79.2469 111.009C79.3799 110.665 81.2025 104.363 81.3622 103.675C81.4287 103.441 81.5352 103.124 81.6283 102.945C81.7613 102.684 81.8944 102.643 82.6925 102.643ZM83.0916 106.964C82.7058 105.285 82.6659 105.188 82.4929 105.409C82.3466 105.601 81.7214 108.147 81.8011 108.216C81.881 108.298 83.238 108.34 83.3045 108.257C83.3444 108.216 83.2512 107.638 83.0916 106.964Z" fill="black"/>
<path d="M125.078 102.822C125.171 102.546 126.953 102.574 127.06 102.863C127.1 102.987 127.14 103.812 127.14 104.72V106.372L129.069 106.289L129.149 102.643H131.131V111.862H129.135V108.147H127.14V109.826C127.14 110.762 127.086 111.601 127.02 111.697C126.953 111.821 126.647 111.862 125.996 111.835L125.078 111.794L125.038 107.39C125.024 104.969 125.038 102.918 125.078 102.822Z" fill="black"/>
<path fill-rule="evenodd" clip-rule="evenodd" d="M135.747 102.739C135.787 102.684 136.266 102.643 136.825 102.67L137.822 102.711L138.062 103.537C138.647 105.532 140.31 111.601 140.31 111.725C140.31 111.807 139.884 111.862 139.326 111.862H138.341L138.195 111.436C138.115 111.188 138.049 110.899 138.049 110.762C138.049 110.197 137.756 110.046 136.599 110.046C136 110.046 135.481 110.074 135.454 110.101C135.428 110.129 135.321 110.459 135.242 110.83C135.002 111.821 134.936 111.862 133.964 111.862C133.126 111.862 133.1 111.849 133.166 111.546C133.206 111.381 133.605 109.977 134.058 108.422C135.401 103.799 135.681 102.849 135.747 102.739ZM137.104 106.743C136.798 105.45 136.678 105.133 136.545 105.354C136.452 105.519 135.92 107.789 135.92 108.051C135.92 108.312 137.25 108.45 137.344 108.188C137.383 108.092 137.277 107.445 137.104 106.743Z" fill="black"/>
<path d="M167.117 102.711L167.25 106.289H169.112L169.245 102.711H171.241V111.794H169.245L169.166 108.174L168.234 108.119C167.716 108.092 167.264 108.106 167.237 108.133C167.21 108.161 167.183 109.014 167.183 110.032V111.862H165.188V102.629L167.117 102.711Z" fill="black"/>
<path d="M192.327 105.092C192.327 106.441 192.367 107.583 192.407 107.638C192.5 107.72 192.646 107.459 193.91 104.899C194.363 103.991 194.722 103.11 194.722 102.945C194.722 102.656 194.775 102.643 195.72 102.643H196.717V111.862H194.722V109.468C194.722 108.147 194.669 107.032 194.602 106.991C194.536 106.95 194.176 107.541 193.791 108.326C193.405 109.096 192.913 110.06 192.713 110.459C192.5 110.858 192.327 111.34 192.327 111.518C192.327 111.849 192.301 111.862 191.329 111.862H190.332V102.643H192.327V105.092Z" fill="black"/>
<path d="M217.604 111.862H213.027C208.983 111.862 208.438 111.835 208.371 111.642C208.331 111.518 208.291 109.55 208.291 107.252C208.291 104.954 208.331 102.987 208.371 102.863C208.438 102.698 208.651 102.643 209.356 102.643C210.061 102.643 210.274 102.698 210.34 102.863C210.38 102.987 210.42 104.652 210.42 106.578V110.074H212.016L212.043 106.386L212.083 102.711H213.945L214.079 110.005H215.675L215.808 102.711L217.604 102.629V111.862Z" fill="black"/>
<path fill-rule="evenodd" clip-rule="evenodd" d="M98.5902 102.643C99.6146 102.643 99.6279 102.67 99.6013 104.225C99.5747 106.097 99.4417 105.904 100.785 105.973C102.275 106.069 102.887 106.386 103.38 107.321C104.045 108.587 103.779 110.541 102.847 111.298C102.262 111.78 101.637 111.876 99.6013 111.835L97.6724 111.794L97.6324 107.39C97.6191 104.968 97.6324 102.918 97.6724 102.821C97.7123 102.698 98.0183 102.643 98.5902 102.643ZM101.264 107.913C100.892 107.569 99.8275 107.473 99.6545 107.748C99.588 107.872 99.5481 109.289 99.588 110.032C99.6013 110.156 99.8275 110.211 100.28 110.211C100.852 110.211 101.011 110.142 101.357 109.798C101.717 109.413 101.757 109.303 101.69 108.794C101.637 108.408 101.504 108.119 101.264 107.913Z" fill="black"/>
<path fill-rule="evenodd" clip-rule="evenodd" d="M184.345 102.849C184.345 103.248 184.398 103.331 184.624 103.331C185.21 103.331 185.981 103.675 186.54 104.184C187.312 104.886 187.604 105.698 187.604 107.115C187.604 108.037 187.538 108.34 187.232 109C187.019 109.44 186.686 109.908 186.487 110.06C186.061 110.376 185.063 110.761 184.651 110.762C184.412 110.762 184.358 110.858 184.318 111.271L184.279 111.794H182.416L182.376 111.298C182.336 110.803 182.323 110.789 181.551 110.624C179.968 110.28 179.157 109.069 179.157 107.046C179.157 105.188 179.755 104.17 181.205 103.551C181.485 103.427 181.857 103.331 182.03 103.331C182.296 103.331 182.35 103.262 182.35 102.945C182.35 102.725 182.389 102.505 182.443 102.464C182.483 102.409 182.935 102.367 183.44 102.367H184.345V102.849ZM185.01 105.119C184.624 104.831 184.358 104.762 184.332 104.941C184.332 105.023 184.332 108.216 184.345 109.069C184.345 109.358 184.664 109.275 185.13 108.862C185.556 108.505 185.582 108.408 185.649 107.431C185.715 106.193 185.529 105.505 185.01 105.119ZM182.216 104.886C181.964 104.831 181.498 105.23 181.272 105.67C181.046 106.138 181.046 108.037 181.285 108.505C181.511 108.918 182.19 109.33 182.363 109.152C182.429 109.083 182.469 108.092 182.456 106.964C182.416 105.271 182.376 104.913 182.216 104.886Z" fill="black"/>
<path d="M176.696 107.665V109.041L174.101 109.124V107.583L176.696 107.665Z" fill="black"/>
<path d="M103.1 47.2685C103.286 46.7594 102.728 45.81 109.739 58.5388C111.827 62.323 114.036 66.3137 114.634 67.4146C115.233 68.5154 115.885 69.685 116.071 70.0291C116.244 70.3731 116.59 70.9924 116.829 71.4053C117.069 71.8181 117.415 72.4373 117.588 72.7813C118.04 73.6345 117.92 73.4143 122.776 82.2075C128.031 91.7163 127.672 91.0696 127.672 91.221C127.671 91.3036 123.999 91.3586 117.561 91.3586H107.45V87.4642C107.45 85.3313 107.397 83.5011 107.344 83.4048C107.251 83.281 106.36 83.2396 103.313 83.2671L99.4018 83.3084L99.2688 91.2898L89.1314 91.3311C78.3556 91.3586 78.7281 91.3861 79.1671 90.7394C79.2602 90.588 79.4597 90.244 79.6061 89.9825C79.7524 89.7211 81.1227 87.244 82.6393 84.4781C84.1558 81.7123 85.5128 79.2629 85.6326 79.0426C85.7523 78.8087 86.4707 77.5151 87.229 76.1528C87.974 74.7905 88.7456 73.4007 88.9319 73.0566C89.1048 72.7126 89.4906 72.0382 89.7567 71.5428C90.4085 70.3732 90.7544 69.7402 91.3531 68.6531C91.7522 67.91 92.8564 65.9146 94.8387 62.3231C94.985 62.0616 96.3686 59.5433 97.9118 56.7499C99.455 53.9426 101.224 50.7225 101.863 49.5941C102.488 48.452 103.047 47.4199 103.1 47.2685Z" fill="black"/>
<path d="M175.964 91.3586H167.396C159.747 91.3586 158.815 91.331 158.749 91.1384C158.709 91.0278 158.682 89.2529 158.682 87.2028C158.696 85.0974 158.643 83.4323 158.576 83.3635C158.509 83.2947 156.833 83.2534 154.598 83.2671L150.754 83.3084L150.687 87.2992C150.647 89.4854 150.594 91.3007 150.581 91.3173C150.567 91.3448 146.723 91.3586 142.04 91.3586H133.525V47.4612L142.08 47.4888L150.62 47.53L150.66 51.3418L150.687 55.1673H154.678C157.778 55.1673 158.669 55.126 158.669 54.9884C158.682 54.9054 158.696 53.1855 158.709 51.1767L158.736 47.53L167.356 47.4888L175.964 47.4612V91.3586Z" fill="black"/>
<path d="M208.398 45.0118C208.451 44.943 209.449 45.1769 211.152 45.6723C212.588 46.0851 215.036 47.2686 216.646 48.3419C226.198 54.6857 229.697 67.4559 224.788 78.1206C221.928 84.3268 216.473 88.9642 210.034 90.6843C208.85 90.987 208.478 91.0421 208.398 90.9183C208.345 90.8219 208.291 89.0467 208.291 86.9826V83.2396L204.34 83.2671L200.376 83.3084L200.336 87.1203L200.309 90.9458H199.977C199.006 90.9458 195.813 89.8036 193.857 88.7441C188.775 86.0194 184.757 81.1755 182.961 75.6298C182.203 73.3042 181.99 72.1208 181.831 69.6301C181.591 65.8871 182.137 62.2817 183.427 59.0892C186.048 52.5527 191.635 47.3649 198.048 45.5347C198.38 45.4384 198.819 45.3145 199.032 45.2457C199.245 45.1769 199.617 45.1219 199.857 45.1219H200.309L200.336 48.8648L200.376 52.6215H208.225L208.291 48.8373C208.331 46.7601 208.385 45.0404 208.398 45.0118Z" fill="black"/>
</svg>
