<svg width="306" height="158" viewBox="0 0 306 158" fill="none" xmlns="http://www.w3.org/2000/svg">
<path d="M107.026 73.3091C107.202 73.5708 109.912 77.1596 111.224 81.8849C111.662 83.3727 112.361 86.958 112.361 87.7467C112.447 88.4458 112.536 90.1956 113.587 90.1956C114.723 90.1956 114.813 88.1842 114.813 87.3955C114.813 86.4348 114.462 81.7093 114.024 79.87C113.235 76.1091 111.138 71.5595 111.048 71.3838C110.962 71.1221 111.134 70.9464 111.31 71.0324C111.748 71.1183 113.321 74.5315 113.673 75.2306C114.286 76.8045 114.809 78.4682 115.247 80.1316C115.508 81.2682 116.208 85.5562 116.297 86.0794C116.383 86.5169 117.348 87.3916 117.785 86.3413C118.136 85.5523 117.609 78.8158 116.996 75.84C116.383 73.2156 115.071 69.1033 115.161 68.9277C115.161 68.6659 115.422 68.666 115.512 68.7519C116.211 69.1893 117.875 73.825 118.664 77.5895C118.839 78.5503 118.925 81.0888 119.89 80.8272C120.764 80.5652 119.89 73.8287 119.538 72.2511C119.015 69.8884 118.226 67.5257 117.176 65.3388C114.2 59.2153 109.564 53.8768 103.441 50.202C102.917 49.8506 102.39 49.5889 101.867 49.3272C99.7659 48.1907 97.579 47.3159 95.392 46.6131C94.6929 46.3514 93.9042 46.1757 93.205 46C92.6815 47.4879 92.2443 48.9758 91.8928 50.5496C91.8928 50.7254 91.8068 50.8113 91.8068 50.987C91.5452 52.2132 91.3696 53.3497 91.1937 54.5759V54.8376C91.1076 56.0638 91.0181 57.2862 91.0181 58.5984V58.6844C91.0181 60.1723 91.1937 61.7462 91.3696 63.2341C91.6312 65.0696 92.0684 66.9089 92.5955 68.6585C92.7714 69.3576 93.033 69.9707 93.2946 70.6698C93.4705 71.1072 93.6461 71.5445 93.8181 72.0679C94.0798 72.8567 94.3414 73.5558 94.5173 74.3446C94.6929 75.0437 94.7789 75.7428 94.8685 76.4456C94.9545 76.969 94.8685 77.5821 94.8685 78.1952C95.1304 78.4568 96.2667 78.4568 96.9694 77.6718C98.1956 76.2736 98.3677 74.3484 98.2817 72.5988C98.2817 71.2866 97.9305 69.9744 97.9305 68.6622V68.4865C99.4183 69.9744 100.73 71.638 101.956 73.3876C104.057 76.4493 105.632 79.8625 106.682 83.4478C107.033 84.6737 107.295 85.9859 107.557 87.2086C107.819 88.3449 107.994 89.7467 109.22 89.9227C110.357 90.0087 110.533 88.4348 110.447 87.8217C110.361 86.8606 110.271 85.9859 110.095 85.0216C109.834 83.1858 109.572 80.8233 109.044 78.9839C108.693 78.0232 107.119 74.61 106.768 73.6455C106.416 73.2081 106.854 73.1222 107.03 73.2941L107.026 73.3091Z" fill="url(#paint0_linear_93_18)"/>
<path d="M84.8048 99.7325C84.5431 99.7325 79.9934 100.256 75.2681 99.1194C73.7802 98.7679 70.281 97.5455 69.582 97.194C68.9688 96.8428 67.395 96.0577 66.7819 97.0184C66.1688 97.9791 67.9184 99.1194 68.6174 99.467C69.4062 99.9045 73.7802 102.005 75.5298 102.529C79.2046 103.755 84.1917 104.192 84.3674 104.278C84.629 104.364 84.629 104.54 84.5431 104.716C84.2814 105.067 80.5168 104.716 79.7317 104.63C78.0681 104.368 76.4083 104.017 74.7447 103.493C73.6942 103.142 69.582 101.658 69.0586 101.392C68.6212 101.217 67.309 101.654 68.0978 102.529C68.6212 103.228 74.6587 106.204 77.6345 107.079C80.1729 107.867 84.4608 108.828 84.5468 108.914C84.7225 109 84.6328 109.265 84.5468 109.352C83.8477 109.703 78.9467 108.828 75.2718 107.602C74.311 107.251 72.1203 106.114 71.8586 107.079C71.6829 107.953 77.8962 110.578 79.4701 111.015C81.8327 111.804 84.1954 112.241 86.644 112.413C93.3806 112.936 100.379 111.625 106.682 108.125C107.205 107.863 107.733 107.512 108.256 107.165C110.267 105.938 112.106 104.45 113.856 102.877C114.379 102.353 114.992 101.826 115.52 101.302C114.469 100.077 113.418 98.9399 112.282 97.8896C112.196 97.8036 112.106 97.7137 111.931 97.6276C111.056 96.8389 110.095 96.0538 109.13 95.3511C109.044 95.2651 108.955 95.2651 108.869 95.1755C107.818 94.4764 106.768 93.7772 105.717 93.1641H105.631C104.319 92.3754 102.917 91.7659 101.519 91.1527C99.7695 90.4536 98.02 89.9265 96.1807 89.4893C95.4816 89.3134 94.7824 89.2277 94.0797 89.0518C93.5565 88.9658 93.119 88.9658 92.5919 88.8762C91.8032 88.7003 91.018 88.5247 90.2293 88.3527C89.5302 88.1771 88.8311 87.9155 88.218 87.6535C87.6944 87.4779 87.1673 87.1303 86.73 86.7788C86.3786 86.8648 85.8552 87.8294 86.1169 88.8798C86.73 90.6295 88.304 91.6798 89.8778 92.5549C91.0142 93.1677 92.3264 93.6052 93.4666 94.2183L93.5526 94.3043C91.4517 94.8276 89.3543 95.1791 87.3394 95.2651C83.6646 95.5267 79.9037 95.1791 76.2289 94.2144C75.0027 93.8633 73.7802 93.4257 72.554 93.0781C71.4175 92.7266 70.1053 92.2034 69.4025 93.1641C68.7894 94.0388 70.1016 95.0895 70.539 95.2651C71.4138 95.7026 72.2026 96.0538 73.1633 96.4014C74.9129 97.1005 77.0999 98.0652 78.9392 98.5027C79.9 98.7643 83.7505 99.0259 84.715 99.2015C85.2384 99.2875 85.0664 99.725 84.801 99.725L84.8048 99.7325Z" fill="url(#paint1_linear_93_18)"/>
<path d="M73.5148 65.2565C73.6008 64.9948 75.1784 60.7068 78.4158 57.032C79.4663 55.8955 82.0907 53.3571 82.7038 52.8338C83.2271 52.3964 84.715 51.3459 84.1019 50.3851C83.4888 49.4243 81.7393 50.3851 81.0402 50.8225C80.2514 51.3459 76.4905 54.2357 75.1784 55.5478C72.4643 58.2619 69.7539 62.5461 69.6679 62.6359C69.4922 62.8116 69.2305 62.7218 69.2305 62.6359C69.0548 62.1985 71.0661 59.047 71.5072 58.3479C72.468 56.9498 73.6082 55.6338 74.7447 54.4114C75.5335 53.6226 78.771 50.6505 79.2084 50.2991C79.5598 50.0374 79.7317 48.6355 78.5952 48.9009C77.7205 49.0767 72.296 53.0992 70.1951 55.2899C68.3595 57.2152 65.5594 60.5386 65.3837 60.6283C65.208 60.7181 65.0323 60.6283 65.0323 60.4526C65.0323 59.6638 68.0081 55.6413 70.8081 53.0169C71.5072 52.3179 73.6082 50.83 72.8194 50.2169C72.1203 49.6038 66.9576 53.9777 65.8211 55.2039C64.0715 56.9535 62.5836 58.8788 61.2715 60.9798C57.7723 66.7556 55.7611 73.5782 56.0227 80.7521C56.0227 81.3652 56.1087 81.9783 56.1087 82.5879C56.2844 84.9504 56.7218 87.2234 57.4209 89.5C57.5966 90.1991 57.8583 90.9878 58.12 91.6869C59.6939 91.3358 61.1818 90.8982 62.6696 90.3747C62.8453 90.289 62.9313 90.289 63.107 90.1991C64.2435 89.7619 65.3837 89.2384 66.4305 88.7113C66.5165 88.7113 66.6062 88.6252 66.6922 88.5357C67.8286 87.9226 68.8791 87.3094 69.9296 86.6103L70.0156 86.5243C71.3278 85.6496 72.554 84.7748 73.6905 83.7242C75.0886 82.498 76.4046 81.1857 77.627 79.7878C78.0644 79.2643 78.5018 78.6511 78.9392 78.1241C79.2009 77.6867 79.4626 77.3353 79.814 76.8979C80.3374 76.2848 80.8645 75.6717 81.3879 75.0623C81.9112 74.5389 82.4383 74.0118 82.9617 73.5744C83.3991 73.223 83.9225 72.8754 84.4496 72.6137C84.5356 72.2623 83.9262 71.3015 82.8757 71.1258C81.0402 70.8641 79.3766 71.7389 77.8887 72.7894C76.7522 73.4885 75.8774 74.4529 74.827 75.238L74.741 75.324C75.1784 73.223 75.8774 71.2118 76.6662 69.2865C78.1541 65.8733 80.1654 62.6358 82.6141 59.8358C83.4888 58.875 84.3636 58.0002 85.2384 57.0357C86.0272 56.2469 87.1637 55.2862 86.5506 54.1497C86.0272 53.1889 84.5393 53.888 84.1019 54.2357C83.3131 54.759 82.614 55.3721 81.915 55.9852C80.5168 57.2114 78.6775 58.6993 77.4513 60.1834C76.8382 60.9723 74.827 64.2097 74.2138 64.9948C73.6905 65.8696 73.425 65.5182 73.5148 65.2565Z" fill="url(#paint2_linear_93_18)"/>
<path fill-rule="evenodd" clip-rule="evenodd" d="M214.957 84.2966C218.793 84.2966 221.586 87.1715 221.586 91.2463C221.586 95.321 218.789 98.2741 214.957 98.2741C213.361 98.2741 212.083 97.7957 210.883 96.6782V102.349H207.686V84.6179H210.565V86.2139C211.604 85.0139 213.122 84.2966 214.957 84.2966ZM214.401 87.2535C212.244 87.2535 210.565 89.0107 210.565 91.3282C210.565 93.564 212.244 95.321 214.479 95.321C216.715 95.3208 218.315 93.5639 218.315 91.3282C218.315 89.0928 216.718 87.2536 214.401 87.2535Z" fill="black"/>
<path fill-rule="evenodd" clip-rule="evenodd" d="M158.007 94.8421H160.403V101.47H158.007L157.368 97.9559H143.789L143.15 101.47H140.833V94.8421H143.229L149.3 80.2251H151.936L158.007 94.8421ZM146.586 94.7602H154.571L150.579 85.0142L146.586 94.7602Z" fill="black"/>
<path fill-rule="evenodd" clip-rule="evenodd" d="M168.149 84.3004C172.063 84.3004 175.177 87.4148 175.177 91.3289H175.18C175.18 95.1642 171.984 98.2778 168.071 98.2779C164.157 98.2779 160.96 95.1643 160.96 91.3289C160.96 87.4931 164.074 84.3005 168.149 84.3004ZM168.074 87.2574C165.917 87.2574 164.239 89.0929 164.239 91.2501C164.239 93.4855 165.996 95.3248 168.074 95.3248C170.152 95.3248 171.988 93.4893 171.988 91.3321C171.988 89.0145 170.231 87.2574 168.074 87.2574Z" fill="black"/>
<path fill-rule="evenodd" clip-rule="evenodd" d="M198.579 84.3004C202.415 84.3004 205.608 87.4148 205.608 91.3289H205.611C205.611 95.1642 202.415 98.2778 198.501 98.2779C194.587 98.2779 191.39 95.1643 191.39 91.3289C191.39 87.4931 194.504 84.3005 198.579 84.3004ZM198.504 87.2574C196.348 87.2574 194.669 89.0929 194.669 91.2501C194.669 93.4855 196.426 95.3248 198.504 95.3248C200.583 95.3248 202.418 93.4893 202.418 91.3321C202.418 89.0145 200.662 87.2574 198.504 87.2574Z" fill="black"/>
<path fill-rule="evenodd" clip-rule="evenodd" d="M230.053 84.3004C233.889 84.3005 237.081 87.4148 237.081 91.3289H237.085C237.085 95.1642 233.889 98.2779 229.975 98.2779C226.061 98.2779 222.864 95.1643 222.864 91.3289C222.864 87.493 225.979 84.3004 230.053 84.3004ZM229.979 87.2574C227.821 87.2574 226.143 89.0929 226.143 91.2501C226.143 93.4855 227.9 95.3248 229.979 95.3248C232.057 95.3248 233.893 93.4893 233.893 91.3321C233.892 89.0145 232.135 87.2574 229.979 87.2574Z" fill="black"/>
<path d="M180.373 89.7284H186.284V84.6179H189.48V97.9566H186.284V92.6854H180.373V97.9566H177.177V84.6179H180.373V89.7284Z" fill="black"/>
<path fill-rule="evenodd" clip-rule="evenodd" d="M244.592 84.6179C247.467 84.6179 249.623 85.9748 249.623 88.6926C249.623 89.732 248.906 90.6889 248.028 91.0107C248.984 91.4104 250.023 92.2097 250.024 93.6444V93.6463L250.018 93.8678C249.907 96.1577 248.1 97.9565 245.392 97.9566H239.082V84.6179H244.592ZM242.274 92.2853V94.9996H245.149C246.105 94.9996 246.745 94.4388 246.745 93.6424C246.745 92.8463 246.106 92.2853 245.149 92.2853H242.274ZM242.274 87.4891V89.8891H244.51C245.867 89.8891 246.506 89.4105 246.506 88.6888C246.506 87.9674 245.867 87.4892 244.51 87.4891H242.274Z" fill="black"/>
<path d="M197.469 69.1149L200.666 60.4866H204.341L196.673 78.3001H193.237L195.713 72.6288H195.709L190.837 60.4866H194.512L197.469 69.1149Z" fill="black"/>
<path fill-rule="evenodd" clip-rule="evenodd" d="M184.127 60.1652C187.962 60.1653 190.755 63.0401 190.755 67.115C190.755 71.1898 187.959 74.1434 184.127 74.1434C182.531 74.1434 181.252 73.6646 180.052 72.5468V78.2181H176.856V60.4866H179.734V62.0832C180.773 60.8832 182.291 60.1652 184.127 60.1652ZM183.648 63.1222C181.331 63.1223 179.813 64.8793 179.813 67.1969C179.813 69.4325 181.491 71.1896 183.727 71.1897C185.962 71.1897 187.562 69.4325 187.562 67.1969C187.562 64.9615 185.966 63.1222 183.648 63.1222Z" fill="black"/>
<path fill-rule="evenodd" clip-rule="evenodd" d="M167.749 60.1685C171.823 60.1685 174.777 63.365 174.777 67.1969H174.78C174.78 71.0323 171.584 74.1465 167.67 74.1466C163.756 74.1466 160.56 71.0324 160.56 67.1969C160.56 63.3614 163.674 60.1686 167.749 60.1685ZM167.674 63.2042C165.596 63.1257 163.838 64.9613 163.838 67.1969C163.839 69.4324 165.596 71.2716 167.674 71.2716C169.753 71.2715 171.588 69.4358 171.588 67.2789C171.588 64.9611 169.831 63.2043 167.674 63.2042Z" fill="black"/>
<path fill-rule="evenodd" clip-rule="evenodd" d="M151.853 57.1328C156.085 57.772 159.282 60.8866 159.282 64.8007C159.282 68.7148 156.167 71.8288 151.853 72.4681V73.8253H148.579V72.4681C144.347 71.8288 141.15 68.7148 141.15 64.8007C141.15 60.8866 144.264 57.772 148.579 57.1328V56.0938H151.853V57.1328ZM151.853 69.2717C154.249 68.711 155.928 66.9539 155.928 64.7969C155.928 62.6398 154.249 60.8829 151.853 60.3221V69.2717ZM148.579 60.3259C146.182 60.8867 144.503 62.6434 144.503 64.7182C144.503 66.793 146.182 68.6322 148.579 69.193V60.3259Z" fill="black"/>
<path d="M213.44 67.3576L217.432 60.4866H221.107V73.8253H217.911V65.0402L214.397 71.1109H212.483L208.969 65.0402V73.8253H205.772V60.4866H209.447L213.44 67.3576Z" fill="black"/>
<defs>
<linearGradient id="paint0_linear_93_18" x1="100.469" y1="48.6356" x2="109.86" y2="85.6794" gradientUnits="userSpaceOnUse">
<stop stop-color="#F86D17"/>
<stop offset="1" stop-color="#FFD103"/>
</linearGradient>
<linearGradient id="paint1_linear_93_18" x1="112.581" y1="99.6539" x2="69.8025" y2="99.6539" gradientUnits="userSpaceOnUse">
<stop stop-color="#0033FF"/>
<stop offset="1" stop-color="#0BBAFF"/>
</linearGradient>
<linearGradient id="paint2_linear_93_18" x1="59.092" y1="102.525" x2="74.6625" y2="61.0807" gradientUnits="userSpaceOnUse">
<stop stop-color="#146B4A"/>
<stop offset="1" stop-color="#14A44A"/>
</linearGradient>
</defs>
</svg>
