<svg width="163" height="61" viewBox="0 0 163 61" fill="none" xmlns="http://www.w3.org/2000/svg">
<path d="M64.6133 45.0152C64.6133 46.0759 64.0134 47.0442 63.0449 47.5054L36.2285 60.0259C34.4069 60.8791 32.3086 59.5418 32.3086 57.5357V40.8872C32.3086 42.8934 34.3834 44.2076 36.2051 43.3775L64.6133 30.1197V45.0152Z" fill="white"/>
<path d="M129.012 45.1304H127.352V39.8267H124.7L124.631 41.1646C124.608 41.7639 124.561 42.2941 124.492 42.8013C124.423 43.3086 124.308 43.7468 124.146 44.1158C123.985 44.4616 123.778 44.7618 123.501 44.9693C123.224 45.1768 122.878 45.2915 122.463 45.2915C122.325 45.2915 122.187 45.2687 122.025 45.2456C121.864 45.2226 121.702 45.199 121.541 45.1529L121.61 43.8619C121.68 43.8849 121.863 43.9077 121.933 43.9078C122.163 43.9308 122.417 43.8387 122.578 43.6773C122.74 43.5159 122.855 43.2854 122.924 43.0318C123.016 42.7781 123.063 42.4782 123.086 42.1324C123.109 41.7866 123.132 41.4635 123.155 41.1177L123.271 38.4898H129.012V45.1304Z" fill="white"/>
<path fill-rule="evenodd" clip-rule="evenodd" d="M116.581 38.4898C117.319 38.4898 117.965 38.6276 118.541 38.9273C119.117 39.2271 119.556 39.6192 119.879 40.1265C120.202 40.6107 120.363 41.2108 120.363 41.8794C120.363 42.5479 120.202 43.1242 119.879 43.6314C119.556 44.1387 119.117 44.5308 118.541 44.8306C117.965 45.1303 117.296 45.2691 116.581 45.2691C115.866 45.2691 115.221 45.1303 114.645 44.8306C114.091 44.5539 113.629 44.1387 113.307 43.6314C112.984 43.1243 112.823 42.5248 112.823 41.8794C112.823 41.2108 112.984 40.6338 113.307 40.1265C113.629 39.6192 114.068 39.2271 114.645 38.9273C115.221 38.6276 115.866 38.4898 116.581 38.4898ZM116.604 39.8033C116.189 39.8033 115.843 39.8958 115.521 40.0572C115.198 40.2186 114.944 40.4723 114.76 40.772C114.575 41.0948 114.483 41.4644 114.483 41.8794C114.483 42.2943 114.575 42.6632 114.76 42.9859C114.944 43.3087 115.198 43.5628 115.521 43.7242C115.843 43.8855 116.189 43.9771 116.581 43.9771C116.973 43.9771 117.342 43.8855 117.665 43.7242C117.988 43.5397 118.241 43.3086 118.426 42.9859C118.61 42.6632 118.702 42.2943 118.726 41.8794C118.726 41.4413 118.634 41.0718 118.449 40.772C118.265 40.4723 118.011 40.2186 117.688 40.0572C117.366 39.8958 116.996 39.8033 116.604 39.8033Z" fill="white"/>
<path fill-rule="evenodd" clip-rule="evenodd" d="M134.222 38.4898C134.959 38.4898 135.605 38.6276 136.182 38.9273C136.758 39.227 137.219 39.6193 137.519 40.1265C137.841 40.6107 138.003 41.2107 138.003 41.8794C138.003 42.5479 137.841 43.1242 137.519 43.6314C137.196 44.1386 136.758 44.5309 136.182 44.8306C135.605 45.1303 134.936 45.2691 134.222 45.2691C133.507 45.2691 132.861 45.1304 132.284 44.8306C131.731 44.5539 131.27 44.1386 130.947 43.6314C130.625 43.1242 130.463 42.5249 130.463 41.8794C130.463 41.2107 130.624 40.6338 130.947 40.1265C131.27 39.6193 131.708 39.227 132.284 38.9273C132.861 38.6275 133.507 38.4898 134.222 38.4898ZM134.244 39.8033C133.829 39.8033 133.484 39.8959 133.161 40.0572C132.838 40.2186 132.584 40.4723 132.399 40.772C132.215 41.0948 132.123 41.4644 132.123 41.8794C132.123 42.2943 132.215 42.6632 132.399 42.9859C132.584 43.3087 132.838 43.5628 133.161 43.7242C133.484 43.8854 133.83 43.9771 134.222 43.9771C134.614 43.9771 134.983 43.8855 135.306 43.7242C135.628 43.5397 135.882 43.3087 136.066 42.9859C136.251 42.6632 136.343 42.2943 136.366 41.8794C136.366 41.4413 136.273 41.0718 136.089 40.772C135.904 40.4724 135.651 40.2185 135.328 40.0572C135.005 39.8958 134.636 39.8033 134.244 39.8033Z" fill="white"/>
<path fill-rule="evenodd" clip-rule="evenodd" d="M91.4033 38.4693C92.095 38.4693 92.7177 38.6311 93.248 38.9078C93.7784 39.2075 94.1942 39.5997 94.54 40.107C94.8396 40.6142 95.001 41.2137 95.001 41.9283V42.1353C95.001 42.2275 94.9775 42.2976 94.9775 42.3667H89.4209C89.444 42.5741 89.5362 42.8045 89.6514 42.9888C89.8358 43.2885 90.1123 43.5422 90.458 43.7037C90.8268 43.865 91.2421 43.9575 91.7031 43.9576C92.1181 43.9576 92.4643 43.8882 92.7871 43.773C93.1099 43.6346 93.387 43.4499 93.6406 43.2193L94.54 44.188C94.1942 44.5339 93.8016 44.7877 93.3174 44.9722C92.8332 45.1566 92.2797 45.2486 91.6572 45.2486C90.8733 45.2486 90.2049 45.1098 89.6055 44.8101C89.0292 44.5335 88.5679 44.1189 88.2451 43.6119C87.9223 43.1046 87.7607 42.5276 87.7607 41.8589C87.7607 41.1904 87.899 40.6142 88.2217 40.107C88.5214 39.5998 88.9594 39.2075 89.5127 38.9078C90.066 38.6081 90.6887 38.4693 91.4033 38.4693ZM91.3809 39.7378C90.989 39.7378 90.643 39.8295 90.3203 39.9908C90.0206 40.1522 89.7669 40.3834 89.6055 40.6831C89.4902 40.8907 89.4211 41.0985 89.375 41.3521H93.3867C93.3406 41.1216 93.2715 40.8906 93.1562 40.6831C92.9718 40.3834 92.7412 40.1522 92.4414 39.9908C92.1417 39.8294 91.7958 39.7379 91.3809 39.7378Z" fill="white"/>
<path d="M86.791 39.896H84.0703V45.1997H82.4102V39.896H79.6895V38.5591H86.791V39.896Z" fill="white"/>
<path d="M99.543 40.7261L101.272 38.5591H103.07L100.419 41.8101L103.209 45.1997H101.318L99.5195 42.9165L97.6748 45.1997H95.8301L98.5977 41.8101L95.9453 38.5591H97.8135L99.543 40.7261Z" fill="white"/>
<path d="M106.367 41.2564H109.941V38.5591H111.602V45.1997H109.941V42.5708H106.367V45.1997H104.73V38.5591H106.367V41.2564Z" fill="white"/>
<path d="M145.177 39.8726H141.396V45.1997H139.759V38.5591H145.177V39.8726Z" fill="white"/>
<path d="M148.38 42.94L152.277 38.5591H153.799V45.1997H152.139V40.8189L148.265 45.1997H146.743V38.5591H148.38V42.94Z" fill="white"/>
<path d="M157.581 42.94L161.479 38.5591H163V45.1997H161.363V40.8189L157.466 45.1997H155.944V38.5591H157.581V42.94Z" fill="white"/>
<path fill-rule="evenodd" clip-rule="evenodd" d="M29.5625 0.00346137C31.0152 0.00346137 32.3066 1.15656 32.3066 2.7476V15.0337H61.8857C63.4075 15.0337 64.6297 16.2552 64.6299 17.7769V30.1138H32.3057V45.1929H2.74414C1.22246 45.1929 0.000251442 43.9714 0 42.4497V30.1128H0.00195312V15.2681C0.00206945 14.2075 0.600974 13.239 1.56934 12.7779L28.4102 0.257368C28.802 0.0730227 29.1937 -0.0195564 29.5625 0.00346137ZM32.3018 19.2417C32.1988 17.3444 30.2066 16.0974 28.4326 16.9058L0.0126953 30.1128H32.3018V19.2417Z" fill="white"/>
<path d="M141.004 19.8609C141.926 19.8611 142.686 20.6907 142.687 21.7281V25.441C142.687 27.3777 143.425 28.3687 144.9 28.3687C145.661 28.3687 146.261 28.0923 146.722 27.5621C147.183 27.0087 147.414 26.2017 147.414 25.1412V19.8833H150.526V29.9371C150.526 32.1276 150.019 33.3266 149.005 34.3872C147.99 35.4479 146.514 36.0015 144.601 36.0015C143.586 36.0015 142.618 35.8632 141.695 35.5865C140.98 35.3559 140.335 35.0788 139.781 34.733C139.556 34.5981 139.354 34.4195 139.344 34.4107L140.772 32.0122C140.772 32.0122 140.842 32.0358 141.096 32.2203C141.464 32.4738 141.856 32.681 142.317 32.8423C142.986 33.0729 143.656 33.188 144.324 33.188C145.385 33.188 146.146 32.9117 146.63 32.3814C147.114 31.8511 147.368 31.4821 147.368 30.3755V29.983C146.953 30.421 146.492 30.767 145.938 30.9976C145.385 31.2282 144.785 31.3433 144.162 31.3433C142.733 31.3432 141.602 30.8822 140.772 29.983C139.943 29.0837 139.527 27.7235 139.527 25.9253V19.8609H141.004Z" fill="white"/>
<path fill-rule="evenodd" clip-rule="evenodd" d="M123.523 15.063C123.823 14.9939 124.1 15.2246 124.169 15.5474V15.5933C124.353 16.9075 123.57 18.153 122.371 18.4068L119.881 18.9605C118.636 19.2372 117.689 19.6748 117.09 20.2974C116.49 20.92 116.122 21.82 116.029 22.9498C116.514 22.3733 117.068 21.9581 117.736 21.6353C118.405 21.3356 119.12 21.1734 119.927 21.1734C120.941 21.1965 121.864 21.4271 122.647 21.8882C123.431 22.3494 124.054 23.0185 124.469 23.8716C124.884 24.7247 125.114 25.6931 125.114 26.8228C125.114 27.9757 124.861 28.9905 124.354 29.8667C123.846 30.743 123.132 31.4352 122.232 31.9195C121.31 32.4037 120.295 32.6568 119.143 32.6568C117.229 32.6568 115.73 31.9879 114.623 30.6275C113.539 29.2901 112.986 27.3072 112.986 24.7017C112.986 22.2806 113.47 20.3663 114.415 18.9136C115.384 17.484 116.837 16.5388 118.843 16.0777L123.523 15.063ZM119.143 23.8951C118.313 23.8951 117.644 24.1715 117.137 24.7017C116.629 25.2321 116.375 25.9704 116.375 26.8697C116.375 27.7686 116.629 28.5293 117.159 29.0826C117.666 29.659 118.336 29.9361 119.143 29.9361C119.95 29.9591 120.618 29.659 121.103 29.0826C121.61 28.5062 121.841 27.7687 121.841 26.8697C121.841 25.9704 121.587 25.2321 121.103 24.7017C120.595 24.1714 119.95 23.8951 119.143 23.8951Z" fill="white"/>
<path d="M128.088 19.8609C128.964 19.8612 129.679 20.6449 129.679 21.6363V26.732C129.679 28.6687 130.416 29.637 131.892 29.6373C132.652 29.6373 133.275 29.3607 133.736 28.8306C134.198 28.2772 134.429 27.4694 134.429 26.4087V19.8833H137.588V32.4732H134.59V31.0669C134.175 31.5973 133.69 31.9891 133.091 32.2427C132.514 32.5193 131.869 32.6353 131.224 32.6353C129.794 32.6353 128.664 32.1741 127.811 31.2749C126.957 30.3757 126.543 29.0143 126.543 27.2388V19.8609H128.088Z" fill="white"/>
<path fill-rule="evenodd" clip-rule="evenodd" d="M104.981 19.3521C108.671 19.3521 111.645 22.3265 111.646 25.9927C111.646 29.659 108.648 32.6343 104.981 32.6343C101.315 32.6342 98.3408 29.659 98.3408 25.9927C98.341 22.3266 101.315 19.3522 104.981 19.3521ZM104.981 22.5806C103.091 22.5808 101.546 24.1024 101.546 26.0162C101.546 27.9069 103.091 29.4516 104.981 29.4517C106.895 29.4517 108.44 27.9069 108.417 26.0162C108.417 24.1253 106.895 22.5806 104.981 22.5806Z" fill="white"/>
<path d="M157.952 19.8824C159.128 19.8824 160.142 20.1358 161.019 20.689C161.733 21.104 162.287 21.7042 162.679 22.4419C162.771 22.5803 162.979 22.9956 162.979 22.9956L162.472 23.2955C162.08 23.5261 161.273 24.0102 160.881 24.2408L160.419 24.5171L160.351 24.3785C160.212 24.079 160.051 23.8257 159.82 23.5953C159.313 23.0649 158.69 22.8111 157.952 22.8111C157.099 22.8111 156.407 23.1334 155.854 23.733C155.3 24.3324 155.024 25.1627 155.023 26.2232C155.023 27.2606 155.3 28.0909 155.854 28.7134C156.407 29.336 157.099 29.6363 157.952 29.6363C158.759 29.6363 159.428 29.336 159.958 28.7134C160.096 28.529 160.212 28.3447 160.327 28.1373L160.442 27.9302L160.881 28.1831C160.881 28.2046 160.9 28.2065 160.903 28.2066L162.495 29.1753L162.956 29.4751C162.951 29.4839 162.725 29.8686 162.656 30.0054C162.264 30.7202 161.71 31.2968 161.019 31.7349C160.142 32.2881 159.128 32.565 157.952 32.565C156.753 32.565 155.692 32.3108 154.747 31.7574C153.802 31.204 153.064 30.466 152.533 29.4976C152.003 28.5292 151.727 27.4452 151.727 26.2232C151.727 25.0012 152.003 23.9171 152.533 22.9488C153.064 21.9805 153.802 21.2424 154.747 20.689C155.692 20.1588 156.753 19.8824 157.952 19.8824Z" fill="white"/>
<path d="M88.2666 23.5708C88.3358 23.6631 88.382 23.6631 88.4512 23.5708L93.7783 15.063H96.9834V32.4722H95.3457C94.4928 32.472 93.801 31.7802 93.8008 30.9273V21.0806L89.4893 27.7681H87.2988L82.8711 21.0806V32.4722H79.6895V15.063H82.8711L88.2666 23.5708Z" fill="white"/>
</svg>
