<svg width="306" height="158" viewBox="0 0 306 158" fill="none" xmlns="http://www.w3.org/2000/svg">
<path d="M44 61.123H51.3596L59.1529 66.1564H51.5776L44 61.123Z" fill="#F1E2C5"/>
<path d="M59.1553 66.1562H51.5776V96.911H59.1553V66.1562Z" fill="black"/>
<path d="M51.5776 96.9112L44 91.8778V61.123L51.5776 66.1564V96.9112Z" fill="#A8A9AD"/>
<path d="M89.4609 61.123H96.8205L104.614 66.1564H97.0361L89.4609 61.123Z" fill="#F1E2C5"/>
<path d="M104.614 66.1562H97.0361V96.911H104.614V66.1562Z" fill="black"/>
<path d="M97.0361 96.9112L89.4609 91.8778V61.123L97.0361 66.1564V96.9112Z" fill="#A8A9AD"/>
<path d="M59.1528 43H66.5124L74.3057 48.0334H66.7305L59.1528 43Z" fill="#F1E2C5"/>
<path d="M74.3081 48.0332H66.7305V102.769H74.3081V48.0332Z" fill="black"/>
<path d="M66.7305 102.772L59.1528 97.7362V43L66.7305 48.0334V102.772Z" fill="#A8A9AD"/>
<path d="M74.3057 43H81.6677L89.4609 48.0334H81.8833L74.3057 43Z" fill="#F1E2C5"/>
<path d="M89.4609 48.0332H81.8833V114.923H89.4609V48.0332Z" fill="black"/>
<path d="M81.8833 114.925L74.3057 109.889V43L81.8833 48.0334V114.925Z" fill="#C06A6D"/>
<path fill-rule="evenodd" clip-rule="evenodd" d="M215.262 88.9627C215.749 88.9627 216.2 89.0491 216.619 89.214C217.038 89.3789 217.399 89.6269 217.711 89.9352C218.024 90.253 218.269 90.6284 218.453 91.08C218.639 91.5317 218.746 92.0337 218.775 92.5905C218.785 92.7435 218.794 92.9087 218.794 93.0808C218.794 93.2648 218.785 93.4275 218.775 93.5804C218.746 94.1396 218.639 94.6392 218.453 95.0909C218.266 95.5425 218.024 95.9173 217.711 96.2256C217.399 96.5339 217.038 96.7755 216.619 96.9475C216.209 97.1101 215.759 97.1988 215.272 97.1988L215.037 97.201C214.503 97.1778 214.074 97.0731 213.741 96.8788C213.361 96.6565 213.068 96.4267 212.871 96.1662V99.5457C212.871 99.6603 212.832 99.7582 212.745 99.8346C212.658 99.9111 212.559 99.9591 212.452 99.9592H211.876C211.769 99.9592 211.66 99.9206 211.582 99.8346C211.505 99.7581 211.456 99.6603 211.456 99.5457V89.5319C211.456 89.4171 211.495 89.3187 211.582 89.2422C211.67 89.1658 211.769 89.1184 211.876 89.1184H212.452C212.568 89.1184 212.668 89.1562 212.745 89.2422C212.833 89.3282 212.871 89.4267 212.871 89.5319V90.0025C213.077 89.7229 213.368 89.4813 213.75 89.2806C214.131 89.0679 214.64 88.9627 215.262 88.9627ZM215.107 90.2726C214.463 90.2726 213.947 90.4658 213.525 90.8505C213.126 91.2352 212.9 91.7661 212.871 92.4305L212.858 92.6948C212.854 92.7961 212.852 92.9096 212.852 93.0351C212.852 93.2861 212.852 93.4873 212.871 93.6427C212.901 94.3642 213.116 94.9233 213.525 95.3176C213.935 95.7119 214.463 95.9055 215.107 95.9055C215.79 95.9055 216.328 95.6928 216.718 95.2604C217.108 94.8373 217.324 94.2494 217.362 93.5181C217.372 93.2289 217.372 92.9492 217.362 92.66C217.324 91.9287 217.108 91.3504 216.718 90.9178C216.328 90.4949 215.79 90.2727 215.107 90.2726Z" fill="black"/>
<path fill-rule="evenodd" clip-rule="evenodd" d="M197.929 88.9627C198.486 88.9627 198.983 89.0488 199.422 89.2328C199.86 89.4073 200.231 89.6656 200.543 90.0025C200.856 90.3395 201.09 90.7436 201.255 91.2263C201.42 91.709 201.5 92.2371 201.5 92.8346V93.248C201.5 93.3627 201.461 93.4605 201.374 93.537C201.287 93.623 201.187 93.6615 201.081 93.6615H195.751V93.7477C195.77 94.4407 195.986 94.9713 196.396 95.3465C196.805 95.7122 197.314 95.9055 197.917 95.9055C198.484 95.9055 198.913 95.8293 199.196 95.6644C199.48 95.5115 199.714 95.3271 199.889 95.1336C199.966 95.0572 200.044 95.0001 200.104 94.9714C200.165 94.9427 200.26 94.9236 200.388 94.9236H200.846C200.962 94.9237 201.061 94.9616 201.158 95.0475C201.255 95.1335 201.285 95.2319 201.265 95.3371C201.236 95.5211 201.149 95.7217 201.001 95.9439C200.856 96.1661 200.65 96.3667 200.376 96.5507C200.102 96.7443 199.761 96.8979 199.351 97.0221C198.942 97.1464 198.462 97.2155 197.917 97.2155C197.399 97.2155 196.931 97.1294 196.522 96.9454C196.102 96.7709 195.751 96.5223 195.448 96.214C195.146 95.9057 194.901 95.54 194.717 95.117C194.531 94.694 194.414 94.2304 194.375 93.731C194.336 93.2602 194.337 92.7868 194.385 92.3255L194.406 92.1481C194.456 91.7439 194.566 91.3668 194.729 91.0134C194.916 90.6097 195.158 90.2535 195.451 89.9453C195.753 89.637 196.115 89.3955 196.524 89.2234C196.943 89.049 197.413 88.9627 197.929 88.9627ZM197.929 90.2632C197.626 90.2632 197.352 90.311 197.091 90.4066C196.836 90.5022 196.604 90.6385 196.408 90.8201C196.212 91.0017 196.057 91.2144 195.95 91.4653C195.834 91.7162 195.773 91.9957 195.763 92.3016V92.361H200.117V92.3132C200.117 91.6968 199.92 91.1974 199.521 90.8222C199.121 90.447 198.593 90.2632 197.929 90.2632Z" fill="black"/>
<path fill-rule="evenodd" clip-rule="evenodd" d="M223.702 88.9526C224.17 88.9526 224.601 89.0198 224.991 89.156C225.391 89.2898 225.732 89.483 226.016 89.7339C226.299 89.9848 226.522 90.3029 226.68 90.6781C226.835 91.0534 226.924 91.4863 226.924 91.9787V96.6391C226.924 96.7537 226.885 96.8516 226.798 96.928C226.721 97.014 226.621 97.0525 226.505 97.0525H225.929C225.812 97.0525 225.713 97.014 225.635 96.928C225.558 96.8516 225.509 96.7441 225.509 96.6391V96.0127C225.413 96.2062 225.274 96.3782 225.081 96.5239C224.885 96.6673 224.662 96.7939 224.407 96.899C224.153 97.0042 223.889 97.0741 223.617 97.1315C223.344 97.1792 223.089 97.2075 222.847 97.2075C222.447 97.2075 222.077 97.1504 221.745 97.0453C221.413 96.9306 221.12 96.7846 220.897 96.5935C220.662 96.3999 220.488 96.1798 220.359 95.9193C220.214 95.6492 220.144 95.3601 220.144 95.0518L220.145 94.8976C220.164 94.5547 220.249 94.2484 220.396 93.9787C220.563 93.6704 220.785 93.4098 221.079 93.1995C221.372 92.9892 221.704 92.8151 222.094 92.6789C222.484 92.5427 222.883 92.4469 223.324 92.3704L225.509 92.0235V91.8208C225.509 91.2998 225.333 90.9145 224.991 90.6564C224.649 90.3984 224.22 90.2719 223.702 90.2719C223.244 90.2719 222.903 90.3482 222.668 90.513C222.433 90.6755 222.239 90.8694 222.072 91.0916C222.014 91.1776 221.946 91.2251 221.866 91.2538C221.786 91.2824 221.701 91.3016 221.573 91.3016H221.105C220.989 91.3016 220.89 91.2637 220.803 91.1778C220.715 91.1013 220.676 91.0028 220.686 90.8881C220.706 90.6661 220.793 90.4369 220.96 90.2053C221.115 89.9735 221.341 89.763 221.614 89.5789C221.888 89.3949 222.201 89.2418 222.562 89.1271C222.913 89.0124 223.293 88.9526 223.702 88.9526ZM223.676 93.5485C223.022 93.6537 222.515 93.8189 222.123 94.0388C221.743 94.261 221.546 94.5502 221.546 94.9063C221.546 95.0209 221.575 95.1283 221.624 95.243C221.672 95.3576 221.759 95.4653 221.878 95.5609C221.994 95.666 222.142 95.7446 222.317 95.802C222.503 95.8689 222.726 95.8983 222.99 95.8983L223.265 95.8853C223.532 95.8642 223.783 95.8121 224.017 95.7332C224.329 95.6281 224.594 95.4631 224.816 95.2719C225.042 95.0688 225.206 94.839 225.323 94.5594C225.439 94.2893 225.5 93.9811 225.5 93.6441V93.2596L223.676 93.5485Z" fill="black"/>
<path fill-rule="evenodd" clip-rule="evenodd" d="M258.778 88.9526C259.245 88.9526 259.676 89.0198 260.066 89.156C260.466 89.2898 260.808 89.483 261.091 89.7339C261.375 89.9848 261.598 90.3029 261.755 90.6781C261.91 91.0534 262 91.4863 262 91.9787V96.6391C262 96.7537 261.961 96.8516 261.874 96.928C261.796 97.014 261.697 97.0525 261.581 97.0525H261.004C260.888 97.0525 260.788 97.014 260.711 96.928C260.634 96.8516 260.585 96.7441 260.585 96.6391V96.0127C260.488 96.2062 260.35 96.3782 260.156 96.5239C259.96 96.6673 259.737 96.7939 259.483 96.899C259.228 97.0042 258.964 97.0741 258.693 97.1315C258.419 97.1792 258.165 97.2075 257.923 97.2075C257.523 97.2075 257.152 97.1505 256.82 97.0453C256.488 96.9306 256.195 96.7846 255.972 96.5935C255.737 96.3999 255.563 96.1797 255.435 95.9193C255.29 95.6492 255.229 95.3601 255.229 95.0518L255.231 94.8976C255.25 94.5547 255.334 94.2484 255.471 93.9787C255.636 93.6704 255.861 93.4098 256.154 93.1995C256.447 92.9892 256.779 92.8151 257.169 92.6789C257.559 92.5426 257.969 92.4469 258.4 92.3704L260.585 92.0235V91.8208C260.585 91.2998 260.408 90.9145 260.066 90.6564C259.725 90.3984 259.296 90.2719 258.778 90.2719C258.32 90.2719 257.978 90.3482 257.744 90.513C257.509 90.6756 257.315 90.8693 257.148 91.0916C257.09 91.1775 257.022 91.2251 256.942 91.2538C256.874 91.2825 256.777 91.3016 256.649 91.3016H256.181C256.065 91.3016 255.965 91.2637 255.878 91.1778C255.791 91.1013 255.752 91.0028 255.762 90.8881C255.781 90.6661 255.868 90.4369 256.035 90.2053C256.19 89.9735 256.416 89.763 256.69 89.5789C256.964 89.3949 257.276 89.2418 257.637 89.1271C257.988 89.0124 258.368 88.9526 258.778 88.9526ZM258.759 93.5485C258.105 93.6537 257.598 93.8189 257.206 94.0388C256.825 94.261 256.629 94.5502 256.629 94.9063C256.629 95.0209 256.658 95.1284 256.707 95.243C256.755 95.3576 256.842 95.4653 256.961 95.5609C257.077 95.666 257.225 95.7446 257.4 95.802C257.576 95.8689 257.799 95.8983 258.073 95.8983L258.348 95.8853C258.615 95.8642 258.866 95.812 259.1 95.7332C259.412 95.6281 259.676 95.463 259.899 95.2719C260.125 95.0688 260.29 94.839 260.406 94.5594C260.522 94.2894 260.583 93.981 260.583 93.6441V93.2596L258.759 93.5485Z" fill="black"/>
<path fill-rule="evenodd" clip-rule="evenodd" d="M241.055 88.9627C241.612 88.9627 242.108 89.0491 242.537 89.214C242.966 89.3789 243.337 89.6178 243.649 89.9069C243.962 90.2056 244.206 90.5616 244.381 90.9844C244.555 91.4075 244.674 91.8716 244.713 92.3711C244.723 92.4571 244.732 92.5743 244.732 92.6984V93.487C244.732 93.6113 244.723 93.719 244.713 93.7955C244.665 94.3068 244.548 94.768 244.371 95.1814C244.194 95.5949 243.952 95.9515 243.649 96.2502C243.337 96.5489 242.966 96.7807 242.537 96.9432C242.108 97.1056 241.609 97.1937 241.055 97.1937C240.5 97.1937 240.001 97.108 239.573 96.9432C239.144 96.7783 238.773 96.5393 238.46 96.2502C238.148 95.9515 237.903 95.5949 237.729 95.1814C237.542 94.768 237.435 94.3045 237.397 93.7955C237.387 93.7094 237.378 93.6113 237.378 93.487C237.368 93.3627 237.368 93.2262 237.368 93.0923C237.368 92.9586 237.368 92.8226 237.378 92.6984C237.378 92.5743 237.387 92.4571 237.397 92.3711C237.435 91.8716 237.542 91.4075 237.729 90.9844C237.906 90.5616 238.158 90.2056 238.46 89.9069C238.773 89.6082 239.144 89.3765 239.573 89.214C240.001 89.0395 240.5 88.9627 241.055 88.9627ZM241.055 90.2726C240.694 90.2726 240.381 90.3297 240.108 90.4348C239.844 90.5495 239.611 90.705 239.425 90.8961C239.238 91.0873 239.092 91.3191 238.995 91.5797C238.889 91.8497 238.831 92.1294 238.79 92.4377C238.77 92.6217 238.761 92.832 238.761 93.0829C238.761 93.3338 238.77 93.5443 238.79 93.7187C238.819 94.027 238.886 94.3068 238.995 94.5768C239.104 94.8469 239.241 95.0668 239.425 95.2604C239.609 95.4539 239.834 95.6069 240.108 95.7216C240.381 95.8363 240.694 95.8845 241.055 95.8845C241.416 95.8845 241.728 95.8268 242.002 95.7216C242.276 95.6069 242.499 95.4516 242.685 95.2604C242.872 95.0692 243.017 94.8372 243.114 94.5768C243.221 94.3163 243.291 94.027 243.32 93.7187C243.339 93.5443 243.349 93.3338 243.349 93.0829C243.349 92.832 243.339 92.6217 243.32 92.4377C243.291 92.1294 243.223 91.8497 243.114 91.5797C243.008 91.3192 242.87 91.0897 242.685 90.8961C242.501 90.7025 242.276 90.5496 242.002 90.4348C241.728 90.3202 241.416 90.2726 241.055 90.2726Z" fill="black"/>
<path d="M232.45 88.9316C233.014 88.9316 233.514 89.0178 233.942 89.1922C234.371 89.3667 234.732 89.5771 235.025 89.828C235.318 90.0789 235.544 90.3487 235.689 90.6354C235.834 90.9222 235.914 91.1951 235.934 91.4341C235.943 91.5487 235.904 91.6466 235.817 91.723C235.73 91.7995 235.631 91.8475 235.515 91.8476H235.047C234.931 91.8476 234.841 91.8187 234.764 91.7614C234.686 91.7041 234.609 91.5989 234.538 91.4341C234.342 91.0112 234.071 90.7029 233.719 90.5188C233.368 90.3348 232.949 90.2386 232.45 90.2386C232.196 90.2386 231.932 90.2867 231.68 90.3631C231.425 90.4492 231.202 90.5856 230.996 90.7672C230.79 90.9512 230.626 91.1805 230.49 91.4696C230.354 91.7588 230.265 92.1055 230.236 92.5094C230.178 92.9229 230.177 93.279 230.216 93.6065L230.252 93.9055C230.3 94.187 230.377 94.4366 230.488 94.6535C230.623 94.9426 230.8 95.1743 231.006 95.3559C231.212 95.5399 231.425 95.674 231.68 95.76C231.924 95.846 232.176 95.8838 232.44 95.8838C232.936 95.8838 233.358 95.7883 233.709 95.6043C234.061 95.4203 234.335 95.1144 234.528 94.689C234.596 94.5266 234.674 94.4191 234.754 94.3617C234.833 94.3044 234.931 94.2756 235.037 94.2756H235.504C235.621 94.2756 235.721 94.3141 235.808 94.4001C235.895 94.4861 235.933 94.584 235.924 94.689C235.914 94.9304 235.836 95.2009 235.679 95.4877C235.534 95.7767 235.309 96.0467 235.016 96.2951C234.723 96.5461 234.361 96.7564 233.932 96.9309C233.504 97.1053 233.004 97.1916 232.44 97.1916C231.876 97.1915 231.367 97.1054 230.929 96.9215C230.49 96.7374 230.119 96.4884 229.816 96.1706C229.514 95.8528 229.269 95.4872 229.105 95.0547C228.94 94.6317 228.84 94.1681 228.821 93.6782C228.811 93.5157 228.801 93.3126 228.801 93.0713C228.792 92.83 228.801 92.6289 228.821 92.4544C228.86 91.9645 228.966 91.5104 229.143 91.0778C229.308 90.655 229.552 90.2798 229.845 89.962C230.148 89.6441 230.51 89.3927 230.948 89.2111C231.377 89.0271 231.886 88.9316 232.45 88.9316Z" fill="black"/>
<path d="M209.357 89.1206C209.463 89.1206 209.552 89.1588 209.62 89.2256C209.688 89.2925 209.727 89.3787 209.727 89.4862C209.727 89.534 209.717 89.5818 209.708 89.6296C209.688 89.6774 209.64 89.725 209.562 89.7918L205.815 93.0279L209.933 96.4081C210.039 96.4941 210.088 96.5824 210.088 96.697C210.088 96.8021 210.049 96.8908 209.981 96.9577C209.914 97.0246 209.826 97.0627 209.717 97.0627H208.918C208.763 97.0627 208.634 97.0339 208.527 96.9765C208.421 96.9193 208.341 96.862 208.283 96.8143L204.8 93.9555V96.6608C204.8 96.7755 204.761 96.874 204.674 96.9504C204.586 97.0365 204.487 97.0743 204.38 97.0743H203.804C203.688 97.0743 203.588 97.0364 203.511 96.9504C203.424 96.874 203.385 96.7755 203.385 96.6608V89.5463C203.385 89.4316 203.424 89.3332 203.511 89.2567C203.588 89.1802 203.688 89.1329 203.804 89.1329H204.38C204.497 89.1329 204.596 89.1707 204.674 89.2567C204.751 89.3427 204.8 89.4412 204.8 89.5463V92.1611L208.01 89.3783C208.068 89.3306 208.155 89.2733 208.254 89.2161C208.351 89.1588 208.47 89.1206 208.615 89.1206H209.357Z" fill="black"/>
<path fill-rule="evenodd" clip-rule="evenodd" d="M170.155 86.3624C170.361 86.3624 170.516 86.4195 170.623 86.5246C170.729 86.6393 170.799 86.7473 170.857 86.862L174.634 96.5008C174.673 96.5964 174.692 96.6635 174.692 96.7137C174.692 96.7997 174.663 96.8879 174.595 96.9548C174.527 97.0217 174.45 97.0504 174.351 97.0504H173.774C173.568 97.0504 173.423 97.0024 173.345 96.9164C173.268 96.8305 173.21 96.7422 173.181 96.6659L172.362 94.6441H166.991L166.192 96.6753C166.163 96.7518 166.104 96.8381 166.027 96.9265C165.94 97.0124 165.801 97.0598 165.598 97.0598H165.022C164.925 97.0598 164.845 97.0311 164.777 96.9642C164.709 96.8973 164.68 96.821 164.68 96.7231C164.68 96.6753 164.7 96.5986 164.739 96.5102L168.525 86.862C168.573 86.7473 168.651 86.6393 168.76 86.5246C168.869 86.41 169.014 86.3624 169.227 86.3624H170.155ZM167.531 93.2669H171.824L169.687 87.8179L167.531 93.2669Z" fill="black"/>
<path d="M149.612 86.3624C149.728 86.3624 149.827 86.4009 149.905 86.4869C149.982 86.5634 150.031 86.6707 150.031 86.7759V90.9634H155.477V86.7759C155.477 86.6611 155.516 86.5634 155.603 86.4869C155.69 86.401 155.789 86.3625 155.896 86.3624H156.531C156.647 86.3624 156.746 86.4009 156.824 86.4869C156.911 86.5634 156.95 86.6708 156.95 86.7759V96.6441C156.95 96.7589 156.911 96.8573 156.824 96.9338C156.746 97.0102 156.647 97.0576 156.531 97.0576H155.896C155.78 97.0575 155.681 97.0195 155.603 96.9338C155.526 96.8477 155.477 96.7493 155.477 96.6441V92.34H150.031V96.6441C150.031 96.7589 149.992 96.8573 149.905 96.9338C149.818 97.0102 149.718 97.0576 149.612 97.0576H148.977C148.861 97.0576 148.771 97.0196 148.684 96.9432C148.607 96.8667 148.558 96.7684 148.558 96.6441V86.7759C148.558 86.6612 148.597 86.5634 148.684 86.4869C148.771 86.4009 148.871 86.3624 148.977 86.3624H149.612Z" fill="black"/>
<path d="M184.93 86.3624C185.046 86.3624 185.146 86.4009 185.223 86.4869C185.301 86.5634 185.349 86.6708 185.349 86.7759V90.9634H190.794V86.7759C190.794 86.6613 190.833 86.5634 190.92 86.4869C191.008 86.4009 191.107 86.3624 191.214 86.3624H191.849C191.965 86.3624 192.065 86.401 192.142 86.4869C192.229 86.5634 192.267 86.6708 192.267 86.7759V96.6441C192.267 96.7589 192.229 96.8573 192.142 96.9338C192.065 97.0102 191.965 97.0576 191.849 97.0576H191.214C191.098 97.0576 190.998 97.0198 190.92 96.9338C190.843 96.8477 190.794 96.7493 190.794 96.6441V92.34H185.349V96.6441C185.349 96.7589 185.31 96.8573 185.223 96.9338C185.136 97.0102 185.036 97.0576 184.93 97.0576H184.296C184.179 97.0576 184.089 97.0196 184.002 96.9432C183.925 96.8667 183.876 96.7684 183.876 96.6441V86.7759C183.876 86.6611 183.915 86.5634 184.002 86.4869C184.089 86.4009 184.189 86.3624 184.296 86.3624H184.93Z" fill="black"/>
<path d="M127.797 89.0988C127.913 89.0988 128.013 89.1373 128.09 89.2234C128.168 89.2999 128.216 89.4072 128.216 89.5123V96.6275C128.216 96.7421 128.177 96.84 128.09 96.9164C128.003 96.9929 127.904 97.041 127.797 97.041H127.23V97.0496C127.115 97.0491 127.017 97.0112 126.94 96.9258C126.862 96.8398 126.814 96.742 126.814 96.6369V91.5246L122.305 96.8882C122.218 97.0028 122.109 97.0504 121.963 97.0504H121.436C121.319 97.0504 121.23 97.0119 121.152 96.9258C121.075 96.8398 121.036 96.7421 121.036 96.6369V89.5217C121.036 89.4166 121.075 89.3092 121.162 89.2328C121.249 89.1468 121.349 89.1082 121.455 89.1082H122.032C122.148 89.1082 122.247 89.1468 122.325 89.2328C122.412 89.3092 122.451 89.4167 122.451 89.5217V94.6818L126.949 89.2712C126.997 89.2234 127.046 89.1849 127.095 89.1466C127.143 89.1179 127.201 89.0988 127.291 89.0988H127.797Z" fill="black"/>
<path d="M142.056 95.2031C142.173 95.2032 142.272 95.2417 142.35 95.3277C142.427 95.4042 142.476 95.5116 142.476 95.6166V96.6369C142.476 96.742 142.437 96.8405 142.35 96.9265C142.272 97.003 142.173 97.0503 142.056 97.0504H141.022C140.905 97.0503 140.806 97.0125 140.728 96.9265C140.641 96.8405 140.603 96.742 140.603 96.6369V95.6166C140.603 95.502 140.641 95.4041 140.728 95.3277C140.815 95.2513 140.905 95.2032 141.022 95.2031H142.056Z" fill="black"/>
<path d="M160.717 95.2031C160.833 95.2031 160.933 95.2417 161.01 95.3277C161.097 95.4042 161.136 95.5115 161.136 95.6166V96.6369C161.136 96.7421 161.097 96.8405 161.01 96.9265C160.933 97.003 160.833 97.0504 160.717 97.0504H159.683C159.567 97.0504 159.467 97.0124 159.39 96.9265C159.302 96.8405 159.264 96.7421 159.264 96.6369V95.6166C159.264 95.5019 159.302 95.4042 159.39 95.3277C159.477 95.2512 159.566 95.2031 159.683 95.2031H160.717Z" fill="black"/>
<path d="M177.377 95.2031C177.493 95.2032 177.592 95.2417 177.67 95.3277C177.757 95.4042 177.796 95.5116 177.796 95.6166V96.6369C177.796 96.742 177.757 96.8405 177.67 96.9265C177.592 97.003 177.493 97.0503 177.377 97.0504H176.342C176.226 97.0503 176.126 97.0125 176.049 96.9265C175.961 96.8405 175.923 96.742 175.923 96.6369V95.6166C175.923 95.502 175.962 95.4041 176.049 95.3277C176.136 95.2513 176.226 95.2032 176.342 95.2031H177.377Z" fill="black"/>
<path fill-rule="evenodd" clip-rule="evenodd" d="M250.835 89.1061C251.724 89.1061 252.416 89.2999 252.913 89.6846C253.409 90.0694 253.654 90.5906 253.654 91.2263C253.654 91.458 253.625 91.6587 253.567 91.8331C253.509 92.0075 253.441 92.1606 253.352 92.2944C253.262 92.4282 253.165 92.5456 253.058 92.6412C252.952 92.7464 252.842 92.8347 252.726 92.9207C253.145 93.1525 253.438 93.4199 253.596 93.7281C253.753 94.0364 253.831 94.3831 253.831 94.7774C253.831 95.5087 253.577 96.0682 253.061 96.453C252.554 96.8377 251.871 97.0315 251.011 97.0315H247V97.0504C246.913 97.0504 246.845 97.0217 246.784 96.9548C246.726 96.8974 246.697 96.8208 246.697 96.7419V89.4145C246.697 89.3285 246.726 89.2614 246.784 89.2017C246.842 89.1419 246.92 89.1061 247 89.1061H250.835ZM248.102 95.7216H250.718C251.237 95.7216 251.646 95.6451 251.959 95.4993C252.271 95.3559 252.426 95.086 252.426 94.7013C252.426 94.3165 252.281 94.0554 251.988 93.912C251.694 93.7782 251.285 93.7093 250.776 93.7093H248.102V95.7216ZM248.102 92.3805H250.638C251.157 92.3805 251.556 92.3132 251.827 92.1771C252.111 92.0432 252.247 91.7828 252.247 91.3885C252.247 90.9942 252.092 90.7429 251.789 90.6282C251.486 90.5039 251.077 90.4442 250.558 90.4442H248.102V92.3805Z" fill="black"/>
<path d="M131.455 89.1061C131.632 89.1061 131.768 89.1442 131.846 89.2111C131.933 89.278 131.991 89.3453 132.022 89.4145L134.5 93.9982H134.503L136.961 89.4145C136.99 89.3572 137.049 89.2899 137.138 89.2111C137.225 89.1442 137.364 89.1061 137.528 89.1061H138.035C138.151 89.1061 138.25 89.1446 138.328 89.2306C138.405 89.3071 138.454 89.4144 138.454 89.5195V96.6347C138.454 96.7494 138.415 96.8472 138.328 96.9237C138.25 97.0001 138.141 97.0482 138.035 97.0482H137.458C137.342 97.0482 137.242 97.0097 137.165 96.9237C137.087 96.8377 137.039 96.7398 137.039 96.6347V92.0409L135.215 95.3726C135.166 95.4682 135.099 95.5568 135.019 95.6333C134.939 95.7097 134.822 95.7578 134.667 95.7578H134.316C134.161 95.7578 134.043 95.7193 133.965 95.6333C133.887 95.5472 133.82 95.4706 133.769 95.3726L131.945 92.0409V96.6347C131.945 96.7493 131.906 96.8472 131.819 96.9237C131.732 97.0001 131.632 97.0482 131.525 97.0482H130.949C130.833 97.0482 130.733 97.0097 130.656 96.9237C130.578 96.8377 130.53 96.7398 130.53 96.6347V89.5195C130.53 89.4049 130.569 89.3071 130.656 89.2306C130.733 89.1446 130.842 89.1061 130.949 89.1061H131.455Z" fill="black"/>
<path fill-rule="evenodd" clip-rule="evenodd" d="M144.878 67.5933C144.994 67.5933 145.094 67.6318 145.171 67.7178C145.259 67.7847 145.297 67.8802 145.297 67.9973L145.294 68.1248C145.277 68.43 145.199 68.7135 145.053 68.9749C144.898 69.2736 144.692 69.5628 144.447 69.8424C144.203 70.122 143.941 70.4113 143.648 70.7005C143.355 70.9896 143.061 71.3076 142.788 71.6541C143.042 71.5968 143.326 71.5679 143.636 71.5679C144.154 71.5679 144.622 71.6538 145.06 71.8091C145.489 71.9716 145.869 72.2133 146.182 72.5216C146.494 72.8395 146.739 73.2241 146.914 73.6759C147.09 74.1275 147.177 74.6486 147.177 75.2269C147.177 75.7671 147.091 76.2669 146.914 76.7186C146.737 77.1703 146.494 77.5548 146.182 77.8823C145.869 78.2001 145.489 78.4508 145.06 78.6324C144.621 78.8069 144.152 78.9025 143.636 78.9025C143.12 78.9025 142.65 78.8165 142.211 78.6324C141.773 78.4484 141.402 78.2097 141.09 77.8823C140.777 77.5645 140.533 77.1702 140.358 76.7186C140.181 76.2669 140.094 75.7647 140.094 75.2269C140.094 74.4478 140.181 73.7546 140.368 73.1762C140.554 72.5885 140.787 72.0796 141.07 71.6447C141.353 71.2098 141.656 70.8273 141.988 70.4999C142.32 70.1725 142.623 69.8736 142.906 69.594C143.19 69.3239 143.425 69.0533 143.609 68.8047C143.793 68.5562 143.883 68.2839 143.883 68.0067C143.883 67.8921 143.921 67.7943 144.009 67.7178C144.086 67.6318 144.186 67.5933 144.302 67.5933H144.878ZM143.638 72.8634C142.916 72.8635 142.379 73.0761 142.027 73.5086C141.676 73.9411 141.499 74.5099 141.499 75.2124C141.499 75.9151 141.676 76.4844 142.027 76.917C142.379 77.3493 142.916 77.5621 143.638 77.5622C144.36 77.5622 144.898 77.3494 145.249 76.917C145.6 76.4844 145.777 75.9151 145.777 75.2124C145.777 74.5099 145.6 73.9411 145.249 73.5086C144.898 73.076 144.36 72.8634 143.638 72.8634Z" fill="black"/>
<path fill-rule="evenodd" clip-rule="evenodd" d="M203.9 70.6403C204.368 70.6403 204.8 70.7076 205.199 70.8438C205.599 70.98 205.941 71.1708 206.224 71.4217C206.507 71.6726 206.73 71.9907 206.887 72.3659C207.052 72.7412 207.132 73.1741 207.132 73.6664V78.3269C207.132 78.4415 207.093 78.5393 207.006 78.6158C206.929 78.6922 206.829 78.7403 206.713 78.7403H206.136C206.02 78.7403 205.921 78.7018 205.843 78.6158C205.756 78.5298 205.717 78.4319 205.717 78.3269V77.7005C205.62 77.894 205.482 78.066 205.288 78.2117C205.092 78.3551 204.869 78.4817 204.615 78.5868C204.361 78.6919 204.097 78.7715 203.826 78.8193C203.552 78.867 203.297 78.8953 203.055 78.8953C202.656 78.8953 202.285 78.8382 201.953 78.7331C201.621 78.6184 201.338 78.4724 201.105 78.2812C200.87 78.0972 200.686 77.8677 200.558 77.5977C200.412 77.3181 200.342 77.0385 200.342 76.7302L200.343 76.5759C200.361 76.2331 200.438 75.9267 200.584 75.657C200.751 75.3487 200.974 75.0882 201.267 74.8779C201.561 74.6676 201.893 74.4927 202.283 74.3565C202.673 74.2204 203.082 74.1252 203.513 74.0488L205.698 73.7019V73.4992C205.698 72.9782 205.521 72.5929 205.18 72.3348C204.829 72.0743 204.4 71.9503 203.881 71.9503C203.424 71.9503 203.081 72.0359 202.856 72.2008C202.621 72.3633 202.427 72.5572 202.26 72.7794C202.202 72.8653 202.134 72.9129 202.064 72.9416C201.986 72.9702 201.887 72.9894 201.771 72.9894H201.304C201.187 72.9894 201.088 72.9515 201.001 72.8656C200.914 72.7795 200.875 72.6811 200.884 72.5759C200.904 72.3539 200.991 72.1247 201.158 71.8931C201.325 71.6612 201.539 71.4507 201.813 71.2667C202.086 71.0827 202.399 70.9296 202.76 70.8149C203.121 70.7002 203.491 70.6404 203.9 70.6403ZM203.874 75.2146C203.22 75.3198 202.704 75.4754 202.321 75.7048C201.941 75.9271 201.745 76.2163 201.745 76.5723C201.745 76.687 201.764 76.7944 201.822 76.909C201.871 77.0237 201.958 77.1313 202.067 77.2269C202.183 77.332 202.331 77.4114 202.505 77.4688C202.691 77.5357 202.924 77.5644 203.188 77.5644L203.463 77.5513C203.73 77.5303 203.981 77.4781 204.215 77.3993C204.528 77.2846 204.792 77.1292 205.015 76.938C205.24 76.7348 205.405 76.5051 205.521 76.2255C205.637 75.9459 205.698 75.6471 205.698 75.3102V74.9257L203.874 75.2146Z" fill="black"/>
<path fill-rule="evenodd" clip-rule="evenodd" d="M187.495 70.6309C188.053 70.6309 188.549 70.717 188.988 70.901C189.426 71.0755 189.797 71.3338 190.109 71.6708C190.422 72.0077 190.657 72.4118 190.821 72.8945C190.986 73.3773 191.066 73.9054 191.066 74.5028V74.9163C191.066 75.031 191.027 75.1287 190.94 75.2052C190.863 75.2912 190.763 75.3297 190.647 75.3297H185.317V75.4159C185.337 76.1089 185.552 76.6396 185.962 77.0148C186.371 77.3804 186.88 77.5737 187.483 77.5738C188.05 77.5738 188.479 77.4976 188.763 77.3326C189.046 77.1797 189.28 76.9954 189.455 76.8019C189.532 76.7255 189.61 76.6684 189.671 76.6397C189.731 76.611 189.826 76.5919 189.955 76.5919H190.412C190.528 76.5919 190.627 76.6299 190.724 76.7157C190.821 76.7922 190.851 76.9002 190.831 77.0053C190.802 77.1893 190.715 77.39 190.567 77.6122C190.422 77.8344 190.216 78.035 189.942 78.219C189.668 78.4125 189.327 78.5661 188.918 78.6904C188.508 78.8146 188.028 78.8837 187.483 78.8837C186.965 78.8837 186.507 78.7976 186.088 78.6136C185.678 78.4296 185.317 78.1905 185.015 77.8823C184.712 77.574 184.467 77.2082 184.283 76.7852C184.099 76.3622 183.98 75.8987 183.941 75.3993C183.912 74.9284 183.913 74.4646 183.961 73.9937L183.981 73.8163C184.032 73.4122 184.142 73.035 184.305 72.6816C184.491 72.2778 184.734 71.9218 185.027 71.6136C185.33 71.3053 185.691 71.0637 186.1 70.8916C186.519 70.7171 186.989 70.6309 187.495 70.6309ZM187.505 71.9409C187.202 71.9409 186.929 71.9887 186.667 72.0842C186.413 72.1798 186.18 72.3161 185.983 72.4977C185.787 72.6793 185.632 72.892 185.526 73.1429C185.41 73.4034 185.349 73.6734 185.339 73.9793V74.0394H189.692V73.9916C189.692 73.3749 189.496 72.8751 189.096 72.4999C188.697 72.1247 188.169 71.9409 187.505 71.9409Z" fill="black"/>
<path d="M155.467 70.7837C155.583 70.7837 155.683 70.8222 155.76 70.9083C155.838 70.9943 155.886 71.0825 155.886 71.1972V78.3124C155.886 78.427 155.847 78.5248 155.76 78.6013C155.673 78.6873 155.583 78.7258 155.467 78.7258H154.891C154.774 78.7258 154.675 78.6873 154.597 78.6013C154.52 78.5249 154.471 78.4174 154.471 78.3124V72.0937H151.232V76.0799C151.232 76.4934 151.194 76.8783 151.106 77.2153C151.019 77.5618 150.871 77.8509 150.678 78.0922C150.472 78.3336 150.21 78.525 149.878 78.6708C149.546 78.8046 149.137 78.8743 148.657 78.8743H148.471C148.355 78.8743 148.255 78.8357 148.178 78.7497C148.1 78.6733 148.052 78.5748 148.052 78.4601V77.9706C148.052 77.8559 148.091 77.7581 148.178 77.6817C148.256 77.5956 148.355 77.5571 148.471 77.5571H148.657C149.135 77.5571 149.447 77.4231 149.605 77.1531C149.762 76.883 149.84 76.5172 149.84 76.0654V71.195C149.84 71.09 149.878 70.992 149.956 70.9155L150.016 70.8525C150.082 70.8055 150.16 70.7837 150.247 70.7837H155.467Z" fill="black"/>
<path fill-rule="evenodd" clip-rule="evenodd" d="M171.003 70.6309C171.56 70.6309 172.056 70.7173 172.485 70.8822C172.914 71.0447 173.285 71.286 173.597 71.5752C173.91 71.8739 174.154 72.2298 174.329 72.6527C174.515 73.0757 174.622 73.5398 174.66 74.0394C174.67 74.1254 174.68 74.2425 174.68 74.3667V75.1552C174.68 75.2795 174.67 75.3872 174.66 75.4637C174.612 75.975 174.496 76.4363 174.319 76.8497C174.143 77.2631 173.9 77.6197 173.597 77.9185C173.285 78.2172 172.914 78.4489 172.485 78.6114C172.047 78.7739 171.558 78.862 171.003 78.862C170.448 78.862 169.949 78.7763 169.52 78.6114C169.091 78.449 168.721 78.2075 168.408 77.9185C168.096 77.6197 167.851 77.2631 167.676 76.8497C167.49 76.4363 167.383 75.9631 167.345 75.4637C167.335 75.3777 167.325 75.2795 167.325 75.1552C167.315 75.031 167.316 74.8944 167.316 74.7606C167.316 74.6269 167.315 74.4908 167.325 74.3667C167.335 74.2425 167.335 74.1254 167.345 74.0394C167.383 73.5398 167.49 73.0757 167.676 72.6527C167.863 72.2297 168.106 71.8739 168.408 71.5752C168.721 71.2765 169.091 71.0447 169.52 70.8822C169.958 70.7197 170.448 70.6309 171.003 70.6309ZM171.003 71.9503C170.642 71.9503 170.329 72.0074 170.056 72.1125C169.782 72.2272 169.559 72.3826 169.372 72.5737C169.186 72.7673 169.04 72.9969 168.944 73.2573C168.837 73.5273 168.779 73.8072 168.738 74.1154C168.718 74.2993 168.709 74.5098 168.709 74.7606C168.709 75.0114 168.719 75.2219 168.738 75.3964C168.767 75.7046 168.835 75.9844 168.944 76.2544C169.05 76.5149 169.188 76.7445 169.372 76.938C169.556 77.1316 169.782 77.2845 170.056 77.3993C170.329 77.514 170.642 77.5622 171.003 77.5622C171.364 77.5622 171.676 77.5044 171.95 77.3993C172.224 77.2846 172.446 77.1292 172.633 76.938C172.819 76.7444 172.965 76.5149 173.062 76.2544C173.168 75.9844 173.239 75.7046 173.268 75.3964C173.287 75.2219 173.297 75.0114 173.297 74.7606C173.297 74.5098 173.287 74.2993 173.268 74.1154C173.239 73.8071 173.171 73.5273 173.062 73.2573C172.955 72.9969 172.817 72.7673 172.633 72.5737C172.446 72.3803 172.224 72.2272 171.95 72.1125C171.686 71.9978 171.364 71.9503 171.003 71.9503Z" fill="black"/>
<path d="M198.934 70.7866C199.041 70.7866 199.131 70.8247 199.199 70.8916C199.266 70.9585 199.305 71.0447 199.305 71.1523C199.305 71.2001 199.295 71.2479 199.285 71.2957C199.266 71.3434 199.228 71.3911 199.141 71.4579L195.393 74.694L199.511 78.0741C199.617 78.1506 199.666 78.2483 199.666 78.3631C199.666 78.4682 199.627 78.5568 199.559 78.6237C199.482 78.6905 199.404 78.7287 199.296 78.7287H198.486C198.331 78.7287 198.203 78.6998 198.096 78.6426C197.99 78.5853 197.91 78.5281 197.852 78.4804L194.368 75.6216V78.3269C194.368 78.4416 194.329 78.5305 194.242 78.6165C194.155 78.6929 194.055 78.7403 193.949 78.7403H193.372C193.256 78.7403 193.157 78.7025 193.079 78.6165C192.992 78.5305 192.953 78.4416 192.953 78.3269V71.2124C192.953 71.0977 192.992 70.9992 193.079 70.9228C193.157 70.8463 193.266 70.7989 193.372 70.7989H193.949C194.065 70.7989 194.165 70.8368 194.242 70.9228C194.32 71.0088 194.368 71.1072 194.368 71.2124V73.8366L197.587 71.0444C197.646 70.9966 197.723 70.9395 197.832 70.8822C197.929 70.8248 198.048 70.7866 198.194 70.7866H198.934Z" fill="black"/>
<path d="M182.716 70.7837C182.832 70.7837 182.931 70.8222 183.009 70.9083C183.096 70.9847 183.135 71.0921 183.135 71.1972V71.6874C183.135 71.802 183.096 71.8999 183.009 71.9763C182.931 72.0624 182.832 72.1009 182.716 72.1009H180.041V78.3196C180.041 78.4342 180.002 78.5321 179.915 78.6085C179.838 78.6946 179.738 78.7331 179.622 78.7331H179.046C178.929 78.7331 178.83 78.6946 178.752 78.6085C178.665 78.5226 178.626 78.4342 178.626 78.3196V72.1009H175.952C175.836 72.1009 175.737 72.0624 175.659 71.9763C175.582 71.8999 175.533 71.7925 175.533 71.6874V71.1972C175.533 71.0825 175.572 70.9847 175.659 70.9083C175.737 70.8222 175.836 70.7837 175.952 70.7837H182.716Z" fill="black"/>
<path d="M131.986 70.7866C132.102 70.7867 132.202 70.8252 132.279 70.9112C132.366 70.9971 132.405 71.0951 132.405 71.2001V76.3602L136.903 70.959C136.952 70.9112 137.001 70.8631 137.049 70.8344C137.097 70.8058 137.156 70.7866 137.245 70.7866H137.751C137.868 70.7866 137.967 70.8251 138.045 70.9112C138.122 70.9972 138.171 71.095 138.171 71.2001V78.3153C138.171 78.4299 138.132 78.5278 138.045 78.6042C137.957 78.6807 137.858 78.7287 137.751 78.7287H137.187C137.07 78.7287 136.972 78.6901 136.894 78.6042C136.817 78.5182 136.768 78.4204 136.768 78.3153V73.203L132.269 78.5658C132.182 78.6805 132.073 78.7287 131.927 78.7287H131.39C131.274 78.7287 131.184 78.6902 131.106 78.6042C131.029 78.5182 130.99 78.4203 130.99 78.3153V71.2001C130.99 71.0949 131.029 70.9876 131.116 70.9112C131.204 70.8347 131.303 70.7866 131.41 70.7866H131.986Z" fill="black"/>
<path d="M159.205 70.7866C159.321 70.7866 159.421 70.8251 159.498 70.9112C159.585 70.9972 159.624 71.0949 159.624 71.2001V76.3602L164.132 70.959C164.181 70.9112 164.23 70.8631 164.278 70.8344C164.326 70.8057 164.385 70.7866 164.474 70.7866H164.98C165.087 70.7866 165.196 70.8251 165.274 70.9112C165.351 70.9972 165.4 71.095 165.4 71.2001V78.3153C165.4 78.4299 165.361 78.5278 165.274 78.6042C165.196 78.6807 165.087 78.7287 164.98 78.7287H164.397C164.281 78.7287 164.181 78.6902 164.104 78.6042C164.016 78.5182 163.978 78.4204 163.978 78.3153V73.203L159.479 78.5658C159.392 78.6805 159.283 78.7287 159.138 78.7287H158.61C158.493 78.7287 158.403 78.6902 158.326 78.6042C158.248 78.5182 158.21 78.4203 158.21 78.3153V71.2001C158.21 71.0951 158.248 70.9876 158.335 70.9112C158.422 70.8252 158.522 70.7867 158.628 70.7866H159.205Z" fill="black"/>
<path fill-rule="evenodd" clip-rule="evenodd" d="M128.1 68.0328C128.216 68.0329 128.306 68.0714 128.384 68.1573C128.461 68.2433 128.5 68.3316 128.5 68.4463V68.9959C128.5 69.1106 128.461 69.209 128.384 69.2855C128.306 69.3714 128.207 69.4093 128.1 69.4093H122.683V72.2486H125.913L125.915 72.2464C126.443 72.2464 126.91 72.3328 127.32 72.4977C127.729 72.6602 128.071 72.9015 128.355 73.1907C128.628 73.4893 128.841 73.8262 128.989 74.2204C129.137 74.6147 129.205 75.0284 129.205 75.4825C129.205 75.9366 129.137 76.3503 128.989 76.7447C128.841 77.1388 128.628 77.4853 128.355 77.7744C128.071 78.0731 127.729 78.3048 127.32 78.4673C126.91 78.6298 126.441 78.7186 125.915 78.7186H121.63C121.513 78.7186 121.414 78.6801 121.336 78.5941C121.259 78.5176 121.21 78.4198 121.21 78.3051V68.4463C121.21 68.3316 121.249 68.2338 121.336 68.1573C121.414 68.0713 121.513 68.0328 121.63 68.0328H128.1ZM122.676 77.3609H125.683C126.024 77.3609 126.317 77.3131 126.572 77.2175C126.826 77.1219 127.029 76.986 127.206 76.8236C127.371 76.6611 127.509 76.4573 127.596 76.2255C127.684 75.9842 127.722 75.7449 127.722 75.4941L127.714 75.3058C127.699 75.1219 127.662 74.9438 127.596 74.77C127.509 74.5382 127.38 74.347 127.206 74.1726C127.029 74.0102 126.826 73.8743 126.572 73.7787C126.317 73.6831 126.024 73.6353 125.683 73.6353H122.676V77.3609Z" fill="black"/>
</svg>
