<svg width="346" height="70" viewBox="0 0 346 70" fill="none" xmlns="http://www.w3.org/2000/svg">
<path d="M0.398926 38.0402L48.3589 20.7402L58.4689 30.8502L9.25893 47.7402" fill="url(#paint0_linear_45_21)"/>
<path d="M48.359 20.7402C57.929 30.3302 33.729 50.1402 18.189 61.0902L25.589 69.2102C39.139 59.2102 62.589 45.7302 58.849 31.1702L48.349 20.7402H48.359Z" fill="url(#paint1_linear_45_21)"/>
<path d="M9.25898 47.74C-0.31102 38.15 25.529 19.07 41.059 8.12L33.659 0C20.099 10 -3.34102 23.48 0.398979 38.04L9.25898 47.74Z" fill="url(#paint2_linear_45_21)"/>
<path d="M29.4391 45.8699C35.8622 45.8699 41.0691 40.6629 41.0691 34.2399C41.0691 27.8168 35.8622 22.6099 29.4391 22.6099C23.016 22.6099 17.8091 27.8168 17.8091 34.2399C17.8091 40.6629 23.016 45.8699 29.4391 45.8699Z" fill="url(#paint3_radial_45_21)"/>
<path d="M96.6787 24.5C99.0287 24.5 100.769 25.0005 101.909 25.9805C103.049 26.9704 103.699 28.2502 103.869 29.8301H100.489C100.299 29.1101 99.9392 28.5296 99.4092 28.0996C98.8892 27.6697 97.9786 27.4502 96.6787 27.4502C95.4789 27.4502 94.6286 27.6501 94.1387 28.04C93.6488 28.43 93.3994 28.9304 93.3994 29.5303C93.3995 30.1701 93.6595 30.67 94.1895 31C94.7194 31.3399 95.3791 31.6101 96.1689 31.8301C96.9589 32.0501 97.8088 32.2605 98.7188 32.4805C99.6287 32.7004 100.479 33.0104 101.269 33.4004L101.279 33.4199C102.069 33.8198 102.729 34.3598 103.259 35.0596C103.789 35.7596 104.049 36.6901 104.049 37.8701C104.049 38.6101 103.919 39.3005 103.639 39.9404C103.359 40.5702 102.939 41.12 102.379 41.5898C101.819 42.0598 101.099 42.4204 100.239 42.6904C99.3793 42.9504 98.3687 43.0801 97.2188 43.0801C94.7289 43.08 92.8887 42.5698 91.7188 41.5498C90.5489 40.5298 89.8589 39.1395 89.6689 37.3896H93.0488C93.2388 38.2496 93.6187 38.9204 94.1787 39.4004C94.7387 39.8804 95.6691 40.1201 97.0391 40.1201C98.4089 40.1201 99.3489 39.9101 99.8789 39.4902C100.409 39.0702 100.669 38.5396 100.669 37.8496C100.669 37.1598 100.409 36.6199 99.8789 36.25C99.349 35.8801 98.6892 35.5701 97.8994 35.3301C97.1094 35.1001 96.2586 34.8704 95.3486 34.6504C94.4387 34.4304 93.5888 34.13 92.7988 33.75C92.0089 33.36 91.3493 32.8396 90.8193 32.1797C90.2894 31.5197 90.0293 30.64 90.0293 29.54C90.0293 28.1201 90.5788 26.9299 91.6787 25.96C92.7787 24.99 94.3289 24.5 96.6787 24.5Z" fill="white"/>
<path d="M200.999 24.5C203.349 24.5 205.089 25.0005 206.229 25.9805C207.369 26.9704 208.019 28.2503 208.189 29.8301H204.809C204.619 29.1101 204.259 28.5296 203.729 28.0996C203.209 27.6696 202.299 27.4502 200.999 27.4502C199.799 27.4502 198.949 27.65 198.459 28.04C197.969 28.43 197.719 28.9303 197.719 29.5303C197.719 30.1701 197.979 30.67 198.509 31C199.039 31.34 199.699 31.6101 200.489 31.8301C201.279 32.0501 202.129 32.2605 203.039 32.4805C203.949 32.7005 204.799 33.0104 205.589 33.4004L205.599 33.4199C206.389 33.8199 207.049 34.3597 207.579 35.0596C208.109 35.7596 208.369 36.6901 208.369 37.8701C208.369 38.6101 208.239 39.3005 207.959 39.9404C207.679 40.5702 207.259 41.12 206.699 41.5898C206.139 42.0598 205.419 42.4204 204.559 42.6904C203.699 42.9503 202.689 43.0801 201.539 43.0801C199.049 43.0801 197.209 42.5698 196.039 41.5498C194.869 40.5298 194.179 39.1396 193.989 37.3896H197.369C197.559 38.2496 197.939 38.9204 198.499 39.4004C199.059 39.8803 199.99 40.1201 201.359 40.1201C202.729 40.1201 203.669 39.9102 204.199 39.4902C204.729 39.0702 204.989 38.5396 204.989 37.8496C204.989 37.1599 204.729 36.6199 204.199 36.25C203.669 35.88 203.009 35.5701 202.219 35.3301C201.429 35.1001 200.579 34.8704 199.669 34.6504C198.759 34.4304 197.909 34.13 197.119 33.75C196.329 33.36 195.669 32.8397 195.139 32.1797C194.609 31.5197 194.349 30.6398 194.349 29.54C194.349 28.12 194.899 26.93 195.999 25.96C197.099 24.99 198.649 24.5 200.999 24.5Z" fill="white"/>
<path d="M320.819 38.2402C321.539 38.2403 322.119 38.4602 322.559 38.9199C323.009 39.3799 323.229 39.9504 323.229 40.6504C323.229 41.3502 322.999 41.92 322.559 42.3799C322.119 42.8297 321.539 43.0595 320.819 43.0596C320.099 43.0596 319.509 42.8398 319.069 42.3799C318.619 41.92 318.399 41.3502 318.399 40.6504C318.399 39.9504 318.629 39.3799 319.069 38.9199C319.519 38.4701 320.099 38.2402 320.819 38.2402Z" fill="white"/>
<path fill-rule="evenodd" clip-rule="evenodd" d="M337.179 17.29C338.499 17.29 339.689 17.5104 340.759 17.9404C341.829 18.3704 342.739 19.0598 343.479 20.0098C344.229 20.9597 344.799 22.1799 345.209 23.6797H345.219C345.629 25.1797 345.829 26.9999 345.829 29.1299V31.2197C345.829 33.3297 345.629 35.1299 345.219 36.6299C344.809 38.1299 344.229 39.3498 343.469 40.2998C342.719 41.2497 341.809 41.9496 340.739 42.3896C339.679 42.8396 338.519 43.0595 337.199 43.0596C335.879 43.0596 334.689 42.8401 333.619 42.4102C332.549 41.9802 331.639 41.2898 330.899 40.3398C330.149 39.3898 329.579 38.1699 329.169 36.6699C328.759 35.1699 328.559 33.3497 328.559 31.2197V29.1299C328.559 27.0299 328.759 25.2197 329.169 23.7197C329.569 22.2198 330.159 20.9998 330.909 20.0498C331.659 19.1 332.569 18.4099 333.639 17.96C334.699 17.51 335.859 17.2901 337.179 17.29ZM334.549 39.25C334.719 39.37 334.889 39.4698 335.079 39.5498C335.709 39.8198 336.389 39.9599 337.179 39.96C337.969 39.96 338.679 39.8298 339.319 39.5498C339.949 39.2798 340.489 38.8101 340.919 38.1504C341.349 37.4904 341.689 36.5997 341.929 35.4697C342.169 34.3398 342.289 32.9196 342.289 31.2197V29.1299C342.289 27.89 342.219 26.8101 342.089 25.8701L334.549 39.25ZM337.189 20.4004C336.399 20.4004 335.679 20.5396 335.049 20.8096C334.419 21.0796 333.879 21.55 333.449 22.21C333.019 22.8699 332.679 23.7598 332.439 24.8896C332.199 26.0096 332.079 27.4299 332.079 29.1299V31.2295C332.079 32.9095 332.199 34.3104 332.439 35.4404C332.519 35.8202 332.619 36.1604 332.719 36.4902L340.819 22.1201C340.389 21.5101 339.889 21.0696 339.289 20.8096C338.659 20.5397 337.979 20.4004 337.189 20.4004Z" fill="white"/>
<path fill-rule="evenodd" clip-rule="evenodd" d="M146.499 24.4697C148.969 24.4697 150.789 25.0299 151.949 26.1299C153.119 27.2398 153.699 28.8798 153.699 31.0596V42.75H151.179L150.779 40.0498H150.709C149.989 41.0298 149.119 41.7803 148.099 42.2803C147.079 42.7901 145.949 43.04 144.699 43.04C142.659 43.04 141.129 42.5596 140.109 41.5996C139.089 40.6396 138.579 39.3397 138.579 37.6797C138.579 36.7698 138.719 35.9494 139.009 35.2295C139.289 34.5198 139.749 33.9003 140.389 33.4004C141.019 32.9004 141.829 32.52 142.799 32.25C143.769 31.99 144.939 31.8604 146.309 31.8604H150.449V30.8896C150.449 29.71 150.139 28.8402 149.529 28.2803C148.919 27.7103 147.899 27.4297 146.489 27.4297C145.2 27.4297 144.249 27.6498 143.649 28.0996C143.05 28.5495 142.709 29.1098 142.609 29.8096H139.299C139.349 29.0597 139.539 28.3696 139.859 27.7197C140.179 27.0699 140.639 26.5102 141.239 26.0303C141.839 25.5503 142.579 25.1804 143.469 24.9004C144.359 24.6304 145.359 24.4902 146.489 24.4902L146.499 24.4697ZM146.509 34.6104C144.829 34.6104 143.648 34.9 142.979 35.46C142.309 36.0199 141.969 36.7601 141.969 37.6699C141.969 38.3899 142.219 38.9697 142.739 39.4297C143.249 39.8796 144.029 40.1103 145.059 40.1104C145.829 40.1104 146.529 39.9795 147.179 39.7295C147.829 39.4796 148.399 39.1303 148.889 38.6904C149.379 38.2404 149.759 37.7296 150.039 37.1396C150.309 36.5497 150.449 35.9199 150.449 35.25L150.469 35.2598V34.6104H146.509Z" fill="white"/>
<path fill-rule="evenodd" clip-rule="evenodd" d="M219.879 24.4902C222.439 24.4902 224.459 25.2495 225.939 26.7695C227.409 28.2895 228.149 30.4499 228.149 33.2598V34.2695C228.149 35.6595 227.949 36.9002 227.569 37.9902C227.189 39.0802 226.639 40.0003 225.919 40.7402C225.199 41.4802 224.329 42.0602 223.309 42.4502C222.289 42.8401 221.139 43.04 219.869 43.04C217.329 43.04 215.319 42.2798 213.829 40.7598C212.339 39.2398 211.599 37.0695 211.599 34.2695V33.2598C211.599 31.8699 211.799 30.6299 212.179 29.54C212.559 28.45 213.109 27.53 213.829 26.79C214.549 26.0501 215.419 25.4801 216.439 25.0801C217.459 24.6902 218.609 24.4902 219.879 24.4902ZM219.879 27.4404C218.369 27.4404 217.169 27.9104 216.299 28.8604C215.429 29.8103 214.989 31.28 214.989 33.2695V34.2803C214.989 36.25 215.419 37.71 216.299 38.6699C217.179 39.6299 218.369 40.1103 219.879 40.1104C221.389 40.1104 222.579 39.6403 223.459 38.6904C224.329 37.7405 224.769 36.2701 224.769 34.2803V33.2695C224.768 31.2998 224.339 29.8398 223.459 28.8799C222.579 27.9199 221.389 27.4404 219.879 27.4404Z" fill="white"/>
<path d="M239.309 24.4805C240.428 24.4805 241.429 24.6298 242.309 24.9297C243.189 25.2297 243.939 25.6397 244.579 26.1396C245.209 26.6496 245.719 27.2404 246.089 27.9404C246.459 28.6403 246.719 29.38 246.859 30.1699H243.479C243.21 29.41 242.769 28.7604 242.129 28.2305C241.499 27.7105 240.619 27.4405 239.489 27.4404C238.049 27.4404 236.899 27.9101 236.049 28.8301L236.059 28.8096C235.199 29.7296 234.779 31.1503 234.779 33.0703V34.0801C234.779 36.14 235.209 37.6599 236.069 38.6299C236.939 39.5998 238.069 40.0898 239.489 40.0898C240.609 40.0898 241.489 39.8001 242.129 39.2402C242.769 38.6803 243.219 37.9302 243.479 36.9902H246.859C246.719 37.8802 246.459 38.69 246.089 39.4199C245.719 40.1499 245.219 40.7901 244.579 41.3301C243.939 41.8701 243.179 42.2898 242.309 42.5898C241.439 42.8898 240.438 43.04 239.309 43.04C236.909 43.04 234.989 42.2797 233.549 40.7598C232.109 39.2398 231.389 37.0197 231.389 34.0898V33.0801C231.389 31.7202 231.589 30.5101 231.969 29.4502C232.349 28.3902 232.889 27.49 233.569 26.75C234.249 26.0101 235.089 25.4495 236.069 25.0596C237.059 24.6697 238.189 24.4805 239.309 24.4805Z" fill="white"/>
<path fill-rule="evenodd" clip-rule="evenodd" d="M266.509 24.4697C268.979 24.4697 270.799 25.0299 271.959 26.1299C273.129 27.2398 273.709 28.8798 273.709 31.0596V42.75H271.189L270.789 40.0498H270.719C269.999 41.0297 269.129 41.7803 268.109 42.2803C267.089 42.7903 265.959 43.04 264.709 43.04C262.669 43.04 261.139 42.5596 260.119 41.5996C259.099 40.6396 258.589 39.3396 258.589 37.6797C258.589 36.7698 258.729 35.9494 259.019 35.2295C259.299 34.5196 259.759 33.9003 260.399 33.4004C261.029 32.9005 261.839 32.52 262.809 32.25C263.779 31.99 264.949 31.8604 266.319 31.8604H270.459V30.8896C270.459 29.7099 270.149 28.8402 269.539 28.2803C268.929 27.7103 267.909 27.4297 266.499 27.4297C265.209 27.4297 264.259 27.6498 263.659 28.0996C263.059 28.5495 262.719 29.1098 262.619 29.8096H259.309C259.359 29.0597 259.549 28.3696 259.869 27.7197C260.189 27.0699 260.649 26.5102 261.249 26.0303C261.849 25.5503 262.589 25.1804 263.479 24.9004C264.369 24.6305 265.369 24.4902 266.499 24.4902L266.509 24.4697ZM266.509 34.6104C264.829 34.6104 263.65 34.9001 262.979 35.46C262.31 36.02 261.969 36.7599 261.969 37.6699C261.969 38.3899 262.219 38.9697 262.739 39.4297C263.249 39.8796 264.029 40.1103 265.059 40.1104C265.829 40.1104 266.529 39.9795 267.179 39.7295C267.829 39.4796 268.399 39.1303 268.889 38.6904C269.379 38.2404 269.759 37.7296 270.039 37.1396C270.309 36.5497 270.449 35.9199 270.449 35.25L270.469 35.2598V34.6104H266.509Z" fill="white"/>
<path d="M305.339 17.2998C306.619 17.2998 307.759 17.4904 308.779 17.8604C309.799 18.2303 310.669 18.7501 311.389 19.4199C312.099 20.0898 312.659 20.8897 313.039 21.8096C313.429 22.7295 313.619 23.7297 313.619 24.8096C313.619 25.4795 313.499 26.1497 313.259 26.8096C313.019 27.4696 312.669 28.1504 312.199 28.8604C311.729 29.5703 311.159 30.3001 310.489 31.04L310.469 31.0596C309.799 31.7995 309.019 32.5897 308.129 33.4297L301.509 39.6904H313.599V42.7803H297.049V39.6904L305.649 31.3799C306.419 30.61 307.089 29.93 307.649 29.3301C308.219 28.7302 308.679 28.1801 309.039 27.6602C309.399 27.1402 309.659 26.6601 309.829 26.2002C309.999 25.7402 310.079 25.29 310.079 24.8301C310.079 24.1601 309.959 23.5498 309.739 23.0098C309.519 22.4698 309.189 22.0001 308.789 21.6201C308.389 21.2401 307.889 20.9297 307.299 20.7197C306.709 20.5098 306.059 20.4004 305.339 20.4004C304.619 20.4004 303.969 20.4997 303.379 20.7197C302.789 20.9397 302.299 21.2497 301.889 21.6396C301.489 22.0396 301.169 22.5201 300.939 23.0801C300.709 23.64 300.599 24.2698 300.599 24.9697H297.069C297.069 23.8399 297.269 22.81 297.659 21.8701C298.049 20.9302 298.609 20.1204 299.329 19.4404C300.049 18.7604 300.919 18.2304 301.939 17.8604C302.959 17.4904 304.059 17.2998 305.339 17.2998Z" fill="white"/>
<path d="M169.169 27.4502H167.189C165.56 27.4502 164.309 27.87 163.449 28.71C162.579 29.55 162.149 30.7002 162.149 32.1602V42.7695H158.909V24.7803H161.429L161.789 27.2998H161.859C162.549 26.2901 163.339 25.5696 164.229 25.1396L164.239 25.1504C165.129 24.7205 166.209 24.5001 167.479 24.5H169.169V27.4502Z" fill="white"/>
<path d="M254.159 42.7695H250.919V24.7803H254.159V42.7695Z" fill="white"/>
<path d="M116.639 24.4805C117.859 24.4805 118.949 24.7596 119.909 25.3096C120.869 25.8595 121.629 26.6799 122.179 27.7598C122.799 26.7298 123.629 25.9296 124.659 25.3496C125.689 24.7797 126.85 24.4902 128.149 24.4902C129.089 24.4903 129.949 24.6603 130.739 24.9902C131.529 25.3302 132.209 25.8199 132.789 26.4697V26.46C133.369 27.0999 133.819 27.8998 134.139 28.8496C134.469 29.7995 134.629 30.8898 134.629 32.1396V42.75H131.389V32.1396C131.389 30.5299 131.039 29.34 130.329 28.5801C129.619 27.8201 128.649 27.4297 127.429 27.4297C126.829 27.4297 126.269 27.5397 125.739 27.7695C125.209 27.9895 124.749 28.3097 124.349 28.7197C123.949 29.1297 123.649 29.6202 123.429 30.2002C123.219 30.77 123.109 31.4199 123.109 32.1396V42.75H119.869V32.1396C119.869 30.5298 119.519 29.34 118.809 28.5801C118.099 27.8202 117.129 27.4297 115.909 27.4297C115.309 27.4297 114.749 27.5398 114.219 27.7598C113.699 27.9798 113.239 28.2902 112.839 28.7002C112.439 29.1002 112.129 29.6005 111.919 30.1904C111.709 30.7803 111.599 31.4306 111.599 32.1504V42.7598H108.359V24.7695H110.879L111.239 27.29H111.309C111.979 26.3801 112.769 25.6802 113.669 25.2002C114.569 24.7202 115.559 24.4805 116.639 24.4805Z" fill="white"/>
<path d="M177.429 24.7803H182.109V27.7305H177.429V37.1201C177.429 37.5799 177.479 37.9797 177.589 38.3096C177.699 38.6496 177.869 38.9302 178.079 39.1602C178.289 39.3901 178.559 39.5502 178.869 39.6602L178.859 39.6504C179.169 39.7603 179.53 39.8096 179.939 39.8096H182.459V42.7598H179.469C178.149 42.7597 177.139 42.5401 176.429 42.0801C175.729 41.6301 175.209 41.0999 174.869 40.5C174.539 39.9 174.339 39.3097 174.279 38.7197C174.219 38.1302 174.189 37.7205 174.189 37.4805V27.7305H170.949V24.7803H174.189V19.7402H177.429V24.7803Z" fill="white"/>
<path d="M282.149 37.1201C282.149 38.0256 282.347 38.7034 282.753 39.1436C283.163 39.5909 283.782 39.8096 284.619 39.8096H285.739V42.7598H284.159C282.869 42.7598 281.859 42.5401 281.139 42.0801C280.429 41.6301 279.899 41.0999 279.579 40.5C279.249 39.9 279.059 39.3097 278.999 38.7197C278.939 38.1299 278.909 37.7195 278.909 37.4795V17.5898H282.149V37.1201Z" fill="white"/>
<path d="M252.539 17.7695C253.169 17.7695 253.679 17.97 254.089 18.3799C254.499 18.7898 254.699 19.2998 254.699 19.9297C254.699 20.5596 254.499 21.0695 254.089 21.4795C253.679 21.8895 253.169 22.0898 252.539 22.0898C251.909 22.0898 251.399 21.8895 250.989 21.4795C250.579 21.0695 250.379 20.5596 250.379 19.9297C250.379 19.2998 250.579 18.7898 250.989 18.3799C251.399 17.97 251.919 17.7695 252.539 17.7695Z" fill="white"/>
<defs>
<linearGradient id="paint0_linear_45_21" x1="0.248926" y1="43.9202" x2="53.3089" y2="25.9302" gradientUnits="userSpaceOnUse">
<stop stop-color="#003BDE"/>
<stop offset="1" stop-color="#00AFFA"/>
</linearGradient>
<linearGradient id="paint1_linear_45_21" x1="18.129" y1="67.8102" x2="56.629" y2="28.0602" gradientUnits="userSpaceOnUse">
<stop stop-color="#007AFF"/>
<stop offset="1" stop-color="#00F2FF"/>
</linearGradient>
<linearGradient id="paint2_linear_45_21" x1="0.25898" y1="43.04" x2="36.059" y2="3.1" gradientUnits="userSpaceOnUse">
<stop stop-color="#007AFF"/>
<stop offset="1" stop-color="#00F2FF"/>
</linearGradient>
<radialGradient id="paint3_radial_45_21" cx="0" cy="0" r="1" gradientUnits="userSpaceOnUse" gradientTransform="translate(34.7491 28.1299) scale(19.76 19.76)">
<stop stop-color="#F6FAFF"/>
<stop offset="1" stop-color="#8BB7FF"/>
</radialGradient>
</defs>
</svg>
