<svg width="187" height="187" viewBox="0 0 187 187" fill="none" xmlns="http://www.w3.org/2000/svg">
<path d="M186.872 89.9113C187.831 111.899 180.961 133.513 167.483 150.912C154.006 168.311 134.795 180.367 113.266 184.935C91.7377 189.504 69.2863 186.289 49.9044 175.863C30.5225 165.437 15.4662 148.475 7.41255 127.994C-0.641106 107.512 -1.17014 84.8379 5.91952 64.0029C13.0092 43.1679 27.2581 25.5224 46.1326 14.2038C65.0072 2.88516 87.2841 -1.37296 109.003 2.18652C130.721 5.746 150.473 16.8924 164.747 33.6438L160.071 37.6289C146.74 21.9843 128.292 11.5743 108.009 8.25001C87.7253 4.9257 66.9201 8.90249 49.2926 19.4733C31.6651 30.0441 18.3576 46.5238 11.7364 65.9822C5.11511 85.4406 5.60919 106.617 13.1307 125.745C20.6523 144.874 34.7139 160.715 52.8152 170.452C70.9166 180.189 91.8846 183.191 111.991 178.925C132.097 174.658 150.039 163.399 162.626 147.149C175.213 130.9 181.629 110.713 180.734 90.1788L186.872 89.9113Z" fill="#018FFE"/>
</svg>
