<svg width="109" height="109" viewBox="0 0 109 109" fill="none" xmlns="http://www.w3.org/2000/svg">
<circle cx="1.94643" cy="1.94643" r="1.94643" fill="#018FFE"/>
<circle cx="1.75179" cy="28.223" r="1.75179" fill="#018FFE"/>
<circle cx="1.75179" cy="54.6947" r="1.75179" fill="#018FFE"/>
<circle cx="1.94643" cy="80.5822" r="1.94643" fill="#018FFE"/>
<circle cx="1.94643" cy="107.053" r="1.94643" fill="#018FFE"/>
<circle cx="28.223" cy="1.75179" r="1.75179" fill="#018FFE"/>
<circle cx="28.0283" cy="28.0283" r="1.55714" fill="#018FFE"/>
<circle cx="28.0283" cy="54.5" r="1.55714" fill="#018FFE"/>
<circle cx="28.223" cy="80.3875" r="1.75179" fill="#018FFE"/>
<circle cx="28.223" cy="106.859" r="1.75179" fill="#018FFE"/>
<circle cx="54.6947" cy="1.75179" r="1.75179" fill="#018FFE"/>
<circle cx="54.5" cy="28.0283" r="1.55714" fill="#018FFE"/>
<circle cx="54.5" cy="54.5" r="1.55714" fill="#018FFE"/>
<circle cx="54.6947" cy="80.3875" r="1.75179" fill="#018FFE"/>
<circle cx="54.6947" cy="106.859" r="1.75179" fill="#018FFE"/>
<circle cx="80.5822" cy="1.94643" r="1.94643" fill="#018FFE"/>
<circle cx="80.3875" cy="28.223" r="1.75179" fill="#018FFE"/>
<circle cx="80.3875" cy="54.6947" r="1.75179" fill="#018FFE"/>
<circle cx="80.5822" cy="80.5822" r="1.94643" fill="#018FFE"/>
<circle cx="80.5822" cy="107.053" r="1.94643" fill="#018FFE"/>
<circle cx="107.053" cy="1.94643" r="1.94643" fill="#018FFE"/>
<circle cx="106.859" cy="28.223" r="1.75179" fill="#018FFE"/>
<circle cx="106.859" cy="54.6947" r="1.75179" fill="#018FFE"/>
<circle cx="107.053" cy="80.5822" r="1.94643" fill="#018FFE"/>
<circle cx="107.053" cy="107.053" r="1.94643" fill="#018FFE"/>
</svg>
