<svg width="60" height="59" viewBox="0 0 60 59" fill="none" xmlns="http://www.w3.org/2000/svg">
<path d="M44.3705 0H28.8575V5.99926H44.3705C49.6229 5.99926 53.8991 10.1987 53.8991 15.3636V43.631C53.8991 48.7958 49.6229 52.9953 44.3705 52.9953H15.624C10.3716 52.9953 6.10094 48.7958 6.10094 43.631V15.3636H0V43.631C0 52.1063 7.01054 59 15.624 59H44.3705C52.9895 59 60 52.1063 60 43.631V15.3636C60 6.88824 52.9895 0 44.3705 0ZM29.2402 30.9725V36.2464L18.2307 25.8677L14.01 30.1981L32.4182 47.5469L49.2069 30.0945L44.7754 25.9713L35.3411 35.7774V31.1689C35.5962 25.0878 33.4775 16.1544 26.7388 9.2225C20.8708 3.19052 12.6844 0 3.05602 0V5.99926C11.0871 5.99926 17.5707 8.48077 22.3295 13.3674C27.7704 18.9631 29.4565 26.3477 29.2457 30.9671L29.2402 30.9725Z" fill="white" fill-opacity="0.12"/>
</svg>
