<svg width="60" height="60" viewBox="0 0 60 60" fill="none" xmlns="http://www.w3.org/2000/svg">
<path d="M10.947 26.7576C9.15595 26.7576 7.70973 28.209 7.70973 29.9949C7.70973 31.7808 9.1611 33.2321 10.947 33.2321C12.7329 33.2321 14.1842 31.7808 14.1842 29.9949C14.1842 28.209 12.7329 26.7576 10.947 26.7576ZM30 45.8106C28.209 45.8106 26.7627 47.262 26.7627 49.0479C26.7627 50.8338 28.2141 52.2851 30 52.2851C31.7859 52.2851 33.2373 50.8338 33.2373 49.0479C33.2373 47.262 31.7859 45.8106 30 45.8106ZM30 14.1894C31.791 14.1894 33.2373 12.738 33.2373 10.9521C33.2373 9.16624 31.7859 7.71487 30 7.71487C28.2141 7.71487 26.7627 9.16624 26.7627 10.9521C26.7627 12.738 28.2141 14.1894 30 14.1894ZM49.053 26.7576C47.262 26.7576 45.8158 28.209 45.8158 29.9949C45.8158 31.7808 47.2671 33.2321 49.053 33.2321C50.8389 33.2321 52.2903 31.7808 52.2903 29.9949C52.2903 28.209 50.8389 26.7576 49.053 26.7576ZM17.6994 48.0751L35.2599 33.5821L42.2954 11.9249L24.7349 26.4179L17.6994 48.0751ZM30 26.7576C31.791 26.7576 33.2373 28.209 33.2373 29.9949C33.2373 31.7808 31.7859 33.2321 30 33.2321C28.2141 33.2321 26.7627 31.7808 26.7627 29.9949C26.7627 28.209 28.2141 26.7576 30 26.7576ZM30 0C13.4586 0 0 13.4586 0 30C0 46.5414 13.4586 60 30 60C46.5414 60 60 46.5414 60 30C60 13.4586 46.5414 0 30 0ZM30 54.3387C16.5826 54.3387 5.66135 43.4225 5.66135 30C5.66135 16.5775 16.5775 5.66135 30 5.66135C43.4225 5.66135 54.3387 16.5775 54.3387 30C54.3387 43.4225 43.4225 54.3387 30 54.3387Z" fill="white" fill-opacity="0.12"/>
</svg>
