<svg width="60" height="58" viewBox="0 0 60 58" fill="none" xmlns="http://www.w3.org/2000/svg">
<path d="M53.0976 44.471C52.3773 44.471 51.6816 44.5774 51.0303 44.7806L45.539 38.4877C47.3793 36.1853 48.4845 33.288 48.4845 30.1391C48.4845 26.3276 46.8711 22.8837 44.2858 20.4217L48.8743 13.4322C49.2492 13.4951 49.6291 13.5338 50.0238 13.5338C53.8377 13.5338 56.9262 10.5059 56.9262 6.76691C56.9262 3.02794 53.8327 0 50.0238 0C46.215 0 43.1215 3.02794 43.1215 6.76691C43.1215 8.17446 43.5606 9.47561 44.3056 10.5591L39.7221 17.5388C38.158 16.939 36.4608 16.6005 34.6797 16.6005C28.2016 16.6005 22.7646 20.9779 21.2795 26.879L13.3607 26.5307C12.3789 23.9671 9.86268 22.1388 6.90239 22.1388C3.08856 22.1388 0 25.1667 0 28.9057C0 32.6446 3.08856 35.6726 6.90239 35.6726C9.64065 35.6726 11.999 34.1054 13.1141 31.8417L21.0328 32.19C22.0442 38.686 27.7675 43.6632 34.6797 43.6632C37.1269 43.6632 39.426 43.0344 41.4193 41.9413L46.9155 48.239C46.4616 49.1435 46.1952 50.1544 46.1952 51.2331C46.1952 54.9721 49.2838 58 53.0976 58C56.9114 58 60 54.9721 60 51.2331C60 47.4941 56.9114 44.4662 53.0976 44.4662V44.471Z" fill="white" fill-opacity="0.12"/>
</svg>
